<?xml version="1.0" encoding="utf-8"?>
<!-- Generator: Adobe Illustrator 25.0.0, SVG Export Plug-In . SVG Version: 6.00 Build 0)  -->
<svg version="1.1" id="Layer_1" xmlns="http://www.w3.org/2000/svg" xmlns:xlink="http://www.w3.org/1999/xlink" x="0px" y="0px"
	 viewBox="0 0 192.78 162" style="enable-background:new 0 0 192.78 162;" xml:space="preserve">
<style type="text/css">
	.st0{fill:#322D31;}
	.st1{fill:#BDA55C;}
	.st2{fill:#B5862D;stroke:#B5862D;stroke-width:0.5;stroke-miterlimit:10;}
</style>
<g>
	<path class="st0" d="M125.82,75.79l0.18,0.03l2.93,1.88l0.2-0.16l-1.95-5.46l-0.4-0.85l1.07-1.98c-0.59-3.26-1.55-5-2.9-5.23
		l-0.73,0.07l-0.04,0.19l0.09,1.6l-0.1,0.57l-0.35-0.06l-1.34-0.62l-0.26,0.04l0.02,0.31l0.08,0.6c-0.44,2.03-0.84,3.01-1.23,2.94
		c-0.58-0.1-0.85-0.27-0.81-0.53l-3.4,0.45c-0.13,0.08-0.28,0.09-0.41,0.06l-0.07,0.01l-0.02-0.04c-0.18-0.07-0.32-0.24-0.28-0.5
		c0.15-0.97,0.9-1.61,1.77-2.09c0.49-0.43,0.97-0.91,1.28-1.47c0.01-0.02,0.01-0.04,0.02-0.06c0.02-0.03,0.05-0.05,0.07-0.08
		c0.01-0.02,0.02-0.03,0.02-0.04c0.04-0.09,0.1-0.14,0.17-0.19c0.37-0.4,0.87-0.65,1.35-0.94c0.31-0.19,2.58-1.49,2.47-1.92
		c-0.01-0.06-0.07-0.03-0.2,0.05c-2.11,1.02-5.7,3.68-8.09,4c-0.22,0.03-0.36-0.04-0.45-0.19c-0.01,0-0.03-0.02-0.04-0.02
		l-0.24-0.13l-0.08-0.12c1.44-2.77,2.51-4.1,3.21-3.98l1.66,0.88l0.42-0.32l-1.61-2.25l0.07-0.38l0.7,0.12
		c0.9,0.32,1.52,0.63,1.89,0.92c0.26,0.14,0.51,0.3,0.76,0.47c0.35,0.08,0.76,0.15,0.88-0.15c0.02-0.02,0.02-0.05,0.03-0.08
		c0-0.14,0.01-0.28,0.02-0.42c-0.02-0.22-0.09-0.46-0.15-0.68c-1.53-1.63-2.25-2.7-2.17-3.19c0.37-0.07,0.61-0.42,0.72-1.06
		c0.14-0.77-0.59-1.81-2.17-3.13l-0.52-0.09c-0.79-0.14-2.27,1.12-4.44,3.77c-1.45,1.59-2.77,2.28-3.97,2.08
		c-0.7-0.12-1.63,1.1-2.79,3.65c-0.62,0.42-1.3,0.57-2.06,0.44c-2.24-0.98-3.2-2.39-2.89-4.24c0.1-0.57,0.78-1.38,2.04-2.41
		l0.13-0.76l-0.35-0.06c-2.33,0.98-3.74,2.84-4.21,5.58c-0.23,1.37,0.17,2.88,1.21,4.54c-0.53,0.3-1.21,0.38-2.03,0.24
		c-1.97-1.09-2.85-2.29-2.63-3.6l1.37-2.72l-0.35-0.06c-1.04,0.45-1.7,1.51-1.99,3.2c-0.45,2.59,0.46,4.65,2.73,6.18
		c0.91,0.32,1.32,0.72,1.24,1.2c-0.05,0.29-2.97,1.89-8.77,4.8c-0.13,0.09-0.25,0.17-0.37,0.26c-1.41,0.04-2.86,0.28-4.34,0.7
		c-1.63,0.48-3.29,0.99-4.98,1.55c-1.68,0.56-3.38,1.08-5.09,1.55c-1.72,0.48-3.44,0.71-5.18,0.71c-0.48,0-1.05-0.05-1.71-0.14
		c-0.66-0.1-1.29-0.27-1.88-0.52c-0.6-0.24-1.1-0.56-1.5-0.97c-0.41-0.41-0.61-0.91-0.61-1.5c0-0.29,0.09-0.64,0.28-1.07
		c0.18-0.43,0.45-0.65,0.8-0.65c0.55,0,1.02,0.09,1.43,0.25c0.4,0.17,0.89,0.26,1.46,0.28c0.39,0.02,0.76-0.11,1.11-0.39
		c0.35-0.29,0.62-0.62,0.79-0.99c0.07-0.11,0.09-0.32,0.08-0.62c-0.01-0.29-0.1-0.37-0.28-0.24c-0.31,0.22-0.57,0.42-0.81,0.59
		c-0.23,0.18-0.58,0.27-1.07,0.27c-0.2,0-0.36-0.03-0.48-0.09c-0.12-0.05-0.24-0.11-0.38-0.18c-0.13-0.06-0.3-0.13-0.52-0.18
		c-0.22-0.05-0.53-0.08-0.93-0.08c-0.64,0-1.16,0.24-1.58,0.74c-0.42,0.49-0.62,1.15-0.6,1.96c0,0.73,0.21,1.42,0.63,2.08
		c0.42,0.66,1.01,1.25,1.78,1.77c0.77,0.52,1.71,0.93,2.84,1.25c1.12,0.32,2.38,0.48,3.79,0.48c1.56,0,3.04-0.14,4.43-0.41
		c1.4-0.28,2.8-0.59,4.19-0.94c1.4-0.35,2.82-0.67,4.27-0.96c1.45-0.29,3-0.43,4.65-0.43c1.61,0,3.27,0.27,5,0.81
		c1.72,0.54,3.3,1.37,4.74,2.49s2.63,2.54,3.55,4.24c0.92,1.71,1.38,3.74,1.38,6.09c0,0.86-0.05,1.74-0.16,2.64
		c-0.11,0.9-0.3,1.78-0.56,2.64c-0.27,0.86-0.62,1.68-1.06,2.46c-0.43,0.78-1,1.49-1.68,2.13c-0.74,0.7-1.57,1.33-2.49,1.89
		c-0.91,0.57-1.83,1.12-2.76,1.67c-0.94,0.55-1.86,1.11-2.76,1.68c-0.9,0.58-1.7,1.23-2.4,1.95c-0.13-0.81-0.44-1.55-0.92-2.23
		c-0.49-0.67-1.1-1.27-1.85-1.79c-0.75-0.53-1.59-0.99-2.52-1.37c-0.94-0.39-1.91-0.7-2.92-0.94c-0.86-0.2-1.71-0.41-2.55-0.63
		c-0.85-0.22-1.66-0.46-2.43-0.71c-0.77-0.25-1.48-0.53-2.12-0.84c-0.65-0.31-1.2-0.65-1.64-1.03c0.01,0,0.01-0.01,0.01-0.01
		c-0.05-0.06-0.11-0.11-0.16-0.17c-0.06-0.08-0.12-0.17-0.16-0.26c-0.11-0.2-0.16-0.44-0.22-0.66c-0.11-0.46-0.18-0.93-0.24-1.4
		c-0.05-0.43-0.02-0.87,0.19-1.26c0.07-0.15,0.18-0.26,0.31-0.35c0.01-0.02,0.03-0.04,0.05-0.05c0.3-0.33,0.67-0.6,1.11-0.8
		c0.47-0.21,0.95-0.32,1.46-0.32c0.35,0,0.75,0.11,1.22,0.33c0.46,0.22,0.69,0.52,0.69,0.9c0,0.41-0.15,0.7-0.45,0.87
		c-0.29,0.17-0.61,0.32-0.95,0.48c-0.34,0.15-0.66,0.36-0.94,0.61c-0.29,0.25-0.43,0.65-0.43,1.2c0,0.38,0.16,0.71,0.49,1.01
		s0.74,0.46,1.22,0.48c-0.09-0.16-0.2-0.32-0.33-0.48c-0.13-0.17-0.19-0.32-0.19-0.48c0-0.33,0.13-0.54,0.41-0.63
		c0.27-0.08,0.57-0.19,0.9-0.31s0.63-0.33,0.9-0.63c0.26-0.29,0.39-0.8,0.39-1.53c0-0.48-0.11-0.89-0.33-1.21
		c-0.22-0.31-0.5-0.57-0.84-0.77c-0.34-0.2-0.71-0.34-1.11-0.41c-0.39-0.08-0.76-0.12-1.12-0.12c-0.7,0-1.3,0.13-1.78,0.38
		c-0.48,0.25-0.89,0.58-1.22,0.97c-0.02,0.02-0.02,0.03-0.04,0.04c-0.02,0.04-0.04,0.08-0.06,0.12c-0.02,0.02-0.03,0.05-0.04,0.07
		c-0.01,0.02-0.03,0.04-0.04,0.06c-0.06,0.07-0.1,0.15-0.15,0.22c-0.33,0.52-0.56,1.09-0.68,1.71c-0.12,0.61-0.18,1.21-0.18,1.78
		c0,0.17,0.02,0.33,0.05,0.48c0.03,0.13,0.06,0.27,0.08,0.41c0,0.02,0.01,0.04,0,0.06c0.01,0,0.01,0.01,0.01,0.02
		c0.01,0.01,0.01,0.03,0.02,0.04c0.04,0.08,0.07,0.16,0.1,0.24c0.03,0.08,0.06,0.15,0.09,0.22c0.02,0.04,0.03,0.08,0.05,0.12
		c0.51,1.21,1.49,2.24,2.95,3.11c1.46,0.87,3.11,1.51,4.96,1.93c0.99,0.24,2,0.43,3.03,0.56c1.04,0.13,2.04,0.34,3.02,0.61
		c0.98,0.28,1.9,0.69,2.75,1.24c0.2,0.13,0.4,0.28,0.59,0.44c-0.36-0.12-0.72-0.22-1.08-0.33c-0.02,0-0.02-0.02-0.04-0.03
		c-0.91-0.28-1.85-0.39-2.84-0.27c-1.17,0.14-2.36,0.49-3.57,1.07c-1.15,0.55-2.29,1.26-3.42,2.12c-0.16,0.13-0.32,0.26-0.48,0.39
		c-0.09,0.07-0.18,0.13-0.27,0.19c-0.01,0.01-0.03,0.02-0.04,0.04c0,0.01-0.02,0.02-0.03,0.03v0.01c-0.97,0.79-1.91,1.63-2.8,2.56
		c-0.92,0.96-1.84,1.9-2.77,2.83s-1.86,1.8-2.77,2.61c-0.9,0.81-1.8,1.52-2.68,2.13c-0.86,0.61-1.68,1.06-2.46,1.35
		c-0.08,0.05-0.16,0.09-0.26,0.09c-0.54,0.03-1.07-0.09-1.59-0.23c-0.5-0.15-0.98-0.32-1.46-0.55c-0.8-0.39-1.45-1.1-1.75-1.94
		h-0.01c0-0.01,0-0.01,0-0.02c-0.01-0.02-0.02-0.04-0.03-0.05c-0.01-0.04,0-0.07,0-0.1c-0.02-0.07-0.02-0.14-0.02-0.21
		c-0.09-0.55-0.11-1.11-0.01-1.72c0.12-0.74,0.39-1.44,0.79-2.09c0.28-0.46,0.74-0.9,1.36-1.34c0.63-0.43,1.16-0.52,1.6-0.24
		c0.49,0.3,0.71,0.7,0.66,1.2c-0.04,0.51-0.11,1.03-0.2,1.58c-0.09,0.55-0.11,1.1-0.04,1.66c0.07,0.55,0.43,1.02,1.07,1.42
		c0.44,0.27,0.96,0.3,1.57,0.09c0.61-0.21,1.12-0.62,1.53-1.23c-0.25,0.01-0.52,0.03-0.82,0.08c-0.3,0.05-0.54,0.02-0.72-0.09
		c-0.38-0.24-0.52-0.57-0.4-0.98c0.12-0.42,0.23-0.89,0.36-1.4c0.12-0.51,0.11-1.05-0.03-1.6c-0.13-0.56-0.63-1.1-1.47-1.62
		c-0.57-0.35-1.13-0.5-1.68-0.45c-0.54,0.05-1.07,0.23-1.57,0.52c-0.51,0.3-0.96,0.68-1.37,1.13c-0.4,0.45-0.75,0.91-1.03,1.36
		c-0.56,0.91-0.88,1.77-0.97,2.57c-0.09,0.81-0.04,1.57,0.16,2.28c-0.01,0-0.01,0.01-0.01,0.01c0.06,0.15,0.11,0.3,0.16,0.45
		c0.05,0.11,0.1,0.22,0.15,0.34c0-0.01,0.01-0.01,0.02-0.02c0.35,0.81,0.84,1.51,1.46,2.12c0.63,0.6,1.27,1.1,1.94,1.52
		c0.21,0.13,0.41,0.22,0.6,0.28s0.39,0.14,0.58,0.22c0.18,0.03,0.35,0.06,0.52,0.1c0.16,0.01,0.31,0.02,0.46,0.04c0,0,0,0,0.01,0
		c1.81,0.22,3.81-0.29,5.99-1.55c2.19-1.25,4.26-2.91,6.22-4.99c1.07-1.1,2.1-2.27,3.07-3.5c0.98-1.24,2.02-2.39,3.13-3.45
		c1.1-1.06,2.31-1.94,3.64-2.65c0.95-0.5,2-0.79,3.16-0.97c0.26,0.05,0.54,0.06,0.79,0.11c0.33,0.11,0.6,0.26,0.85,0.41
		c0.16,0.22,0.35,0.43,0.5,0.68c1.05-0.97,2.16-1.81,3.31-2.51s2.3-1.34,3.43-1.91c1.13-0.58,2.22-1.14,3.26-1.69
		c1.05-0.55,1.98-1.16,2.79-1.84c1.12-0.93,2.04-1.86,2.75-2.81c0.72-0.95,1.28-1.93,1.68-2.95c0.41-1.03,0.69-2.09,0.84-3.21
		c0.16-1.11,0.24-2.28,0.24-3.52c-0.03-2.73-0.66-5.07-1.9-7.02c-0.4-0.63-0.84-1.22-1.31-1.78c1.56-0.71,3.1-1.72,4.63-3.05
		c0.89-0.64,3.23-1.29,7.01-1.95c1.89-1.19,3.25-1.74,4.08-1.66c-0.03,3.53,1.13,5.51,3.5,5.91l0.74-0.07l0.03-0.19
		c-0.66-1.07-0.92-2.03-0.77-2.89L125.82,75.79z M110.44,62.32c-0.45,1.9-1.02,2.78-1.72,2.66l-0.53-0.09l0.03-0.19
		c0.83-1.86,1.48-2.8,1.93-2.82l0.35,0.06L110.44,62.32z"/>
	<path class="st1" d="M104,89.78c-0.15,0.01-0.31,0.09-0.46,0.25c-0.3,0.31-0.46,0.68-0.47,1.12c-0.01,0.44-0.02,0.86-0.02,1.25
		c-0.02,2.13-0.42,3.89-1.19,5.28c-0.77,1.39-1.71,2.6-2.82,3.65c-1.11,1.05-2.29,2.01-3.53,2.9c-1.24,0.89-2.36,1.92-3.35,3.09
		c0.02-0.15,0.05-0.31,0.1-0.48c0.04-0.17,0.09-0.32,0.13-0.48c1.12-0.97,2.25-1.89,3.38-2.77s2.15-1.85,3.04-2.9
		c0.89-1.06,1.62-2.25,2.18-3.6c0.56-1.34,0.83-2.96,0.81-4.85c0-2-0.52-3.88-1.55-5.64c0.04-0.24,0.08-0.47,0.12-0.69
		c0.03-0.22,0.05-0.44,0.05-0.66c0-0.22-0.07-0.41-0.2-0.58c-0.13-0.17-0.24-0.33-0.33-0.51c-0.07,0.37-0.24,0.63-0.53,0.76
		c-0.09-0.2-0.17-0.4-0.23-0.59c-0.07-0.2-0.1-0.4-0.1-0.59c0-0.26,0.09-0.47,0.28-0.63c0.19-0.15,0.43-0.2,0.74-0.13
		c0.04-0.15-0.02-0.32-0.2-0.5c-0.18-0.18-0.34-0.26-0.5-0.26c-0.37,0-0.62,0.12-0.73,0.35s-0.16,0.48-0.16,0.74
		c0,0.24,0.04,0.48,0.13,0.73c0.09,0.24,0.19,0.47,0.3,0.69c-1.03-1.19-2.31-2.19-3.83-3c-1.52-0.81-3.26-1.33-5.21-1.55
		c-0.11-0.18-0.17-0.36-0.17-0.56c0-0.11,0.03-0.22,0.08-0.33c0.05-0.11,0.08-0.21,0.08-0.3c-0.24,0-0.57,0.12-0.99,0.35
		c-0.42,0.23-0.68,0.58-0.79,1.04c-2.16,0.09-4.2,0.34-6.12,0.76c-1.93,0.42-3.81,0.86-5.66,1.34c-1.85,0.47-3.7,0.91-5.54,1.3
		c-1.8,0.39-3.67,0.62-5.6,0.72c-0.02,0-0.04,0-0.06,0c-0.03,0-0.06,0-0.08,0.01c0,0,0,0,0-0.01c-0.02,0-0.04,0-0.06,0
		c-0.01,0-0.01,0-0.01,0h-0.7c0,0-0.01,0-0.01,0c-0.22,0.01-0.44,0.01-0.66,0c-0.56-0.01-1.13,0.01-1.68-0.08
		c-0.02,0-0.04-0.01-0.05-0.02c-0.03-0.01-0.06-0.01-0.08-0.02c-0.81-0.12-1.65-0.29-2.55-0.54c-1.04-0.3-1.99-0.69-2.82-1.17
		c0.11-0.18,0.17-0.35,0.17-0.53c0-0.68-0.24-1.26-0.73-1.75c-0.48-0.48-1.06-0.71-1.72-0.69h-0.13c-0.02-0.09-0.03-0.22-0.03-0.4
		c0-0.7,0.26-1.39,0.78-2.05c0.52-0.66,1.18-0.99,2-0.99c0.37,0,0.75,0.18,1.14,0.54c0.38,0.36,0.58,0.72,0.58,1.07
		c0,0.2-0.06,0.39-0.18,0.58c-0.12,0.19-0.26,0.37-0.41,0.54c-0.15,0.18-0.29,0.35-0.41,0.51c-0.12,0.17-0.18,0.34-0.18,0.51
		c0,0.18,0.04,0.35,0.12,0.51c0.08,0.16,0.27,0.29,0.57,0.38c-0.02-0.13-0.05-0.27-0.1-0.43c-0.04-0.15-0.07-0.3-0.07-0.43
		c0-0.22,0.06-0.4,0.19-0.53c0.13-0.13,0.27-0.26,0.42-0.38c0.15-0.12,0.28-0.27,0.4-0.45c0.12-0.18,0.18-0.44,0.18-0.79
		c0-0.55-0.27-1.02-0.81-1.42c-0.54-0.4-1.06-0.59-1.54-0.59c-0.53,0-1,0.11-1.39,0.33s-0.73,0.5-1,0.83
		c-0.26,0.33-0.46,0.69-0.6,1.09c-0.13,0.4-0.2,0.77-0.2,1.12c0,0.09,0,0.18,0.02,0.27c0.01,0.09,0.03,0.19,0.05,0.3
		c-0.3,0.11-0.6,0.3-0.88,0.58c-0.28,0.28-0.53,0.58-0.73,0.93s-0.37,0.71-0.5,1.09c-0.13,0.39-0.19,0.76-0.19,1.11
		c0,1.26,0.36,2.27,1.09,3.04c0.73,0.77,1.57,1.37,2.54,1.79c0.97,0.42,1.95,0.7,2.94,0.83c0.99,0.13,1.74,0.2,2.24,0.2
		c0.42,0,0.89-0.04,1.4-0.12c0.52-0.08,1.05-0.17,1.6-0.26c0.55-0.1,1.08-0.21,1.58-0.33c0.51-0.12,0.96-0.21,1.35-0.28
		c0.11,0.46,0.33,0.84,0.68,1.13c0.34,0.29,0.73,0.51,1.15,0.66c0.43,0.15,0.88,0.25,1.34,0.31s0.89,0.08,1.29,0.08
		c1.19,0,2.29-0.34,3.3-1.01c1.01-0.67,2-1.45,2.95-2.34s1.91-1.79,2.85-2.69c0.95-0.9,1.94-1.59,2.97-2.08h-0.03
		c0.13-0.02,0.27-0.05,0.41-0.1c0.14-0.04,0.28-0.09,0.41-0.13c-3.01,1.63-4.54,4.18-4.59,7.66c0,0.84,0.19,1.7,0.56,2.59
		c0.37,0.89,0.88,1.7,1.51,2.43c0.63,0.73,1.37,1.33,2.22,1.8s1.74,0.71,2.68,0.71c0.09,0,0.17-0.01,0.25-0.02
		c0.08-0.01,0.16-0.02,0.25-0.02c-0.15,0.24-0.29,0.49-0.41,0.74s-0.18,0.5-0.18,0.74c0,0.7,0.15,1.3,0.46,1.78
		c0.31,0.48,0.7,0.88,1.16,1.19c0.46,0.31,0.97,0.53,1.52,0.66c0.55,0.13,1.07,0.2,1.56,0.2c0.88,0,1.64-0.19,2.27-0.56
		c0.63-0.37,1.15-0.85,1.56-1.42c0.41-0.57,0.71-1.2,0.91-1.88c0.2-0.68,0.3-1.34,0.3-1.98c0-1.34-0.26-2.45-0.79-3.32
		s-1.13-1.62-1.82-2.26c0-0.46-0.1-0.95-0.31-1.47c-0.21-0.52-0.49-1-0.84-1.44c-0.35-0.44-0.76-0.83-1.24-1.17
		c-0.47-0.34-0.98-0.58-1.53-0.71c-0.02-0.11-0.03-0.29-0.03-0.53c0-0.48,0.17-0.93,0.51-1.34c0.34-0.41,0.65-0.83,0.94-1.27
		c1.08,0.09,2.13,0.48,3.16,1.17c1.03,0.69,1.93,1.55,2.7,2.56c-0.46-0.31-1-0.57-1.61-0.78c-0.61-0.21-1.3-0.34-2.07-0.38
		c-0.18,0.24-0.18,0.53,0,0.86c1.08-0.15,2.02-0.06,2.82,0.28c0.8,0.34,1.45,0.9,1.96,1.67c0.4,0.75,0.71,1.5,0.95,2.26
		c0.23,0.76,0.35,1.49,0.35,2.19v0.3c-0.57-0.15-1.14-0.66-1.72-1.52c-0.09,0.24-0.19,0.48-0.31,0.73c-0.12,0.24-0.19,0.5-0.21,0.76
		c-0.04,0.55,0.08,0.91,0.36,1.07s0.63,0.24,1.02,0.21c0.15-0.02,0.28,0.03,0.38,0.17c0.1,0.13,0.2,0.28,0.31,0.43
		c-0.15,1.03-0.43,2.04-0.83,3.02c-0.4,0.98-0.93,1.9-1.62,2.76c-0.42,0.55-0.88,1.08-1.37,1.6c-0.5,0.52-0.95,1.05-1.35,1.6
		c-0.41,0.55-0.74,1.13-1.01,1.73c-0.26,0.61-0.4,1.27-0.4,2l0.49,0.17c0.64-0.88,1.36-1.67,2.18-2.36
		c0.81-0.69,1.64-1.36,2.49-2.01s1.68-1.32,2.51-2.01c0.83-0.69,1.55-1.48,2.18-2.38c0.63-0.89,1.13-1.91,1.52-3.07
		c0.38-1.16,0.57-2.52,0.54-4.11c0-0.4,0.07-0.79,0.21-1.17c0.14-0.38,0.41-0.73,0.81-1.04C104.34,89.86,104.15,89.77,104,89.78z
		 M54.07,80.03c0.46,0,0.92,0.21,1.39,0.63c0.46,0.42,0.69,0.84,0.69,1.25c0,0.18-0.05,0.35-0.17,0.53
		c-0.51-0.33-0.93-0.69-1.27-1.09c-0.34-0.4-0.58-0.84-0.71-1.32H54.07z M77.49,85.33c-0.72,0.8-1.42,1.55-2.13,2.24
		c-0.7,0.69-1.46,1.28-2.28,1.75c-0.81,0.47-1.79,0.71-2.94,0.71c-0.7,0-1.42-0.11-2.14-0.33c-0.73-0.22-1.24-0.73-1.55-1.52
		c2.29-0.73,4.53-1.56,6.72-2.51c2.19-0.95,4.46-1.79,6.81-2.54C79.03,83.79,78.2,84.53,77.49,85.33z M81.43,81.98
		c-1.78,0.51-3.51,1.07-5.18,1.7c-1.67,0.63-3.32,1.28-4.95,1.95c-1.63,0.67-3.31,1.29-5.05,1.86c-0.07-0.37-0.09-0.74-0.07-1.09
		c-0.22,0.09-0.34,0.26-0.35,0.53c-0.01,0.26-0.02,0.49-0.02,0.69c-1.08,0.35-2.19,0.64-3.35,0.87c-1.15,0.23-2.29,0.35-3.42,0.35
		c-0.68,0-1.46-0.11-2.33-0.33c-0.87-0.22-1.69-0.56-2.46-1.01c-0.77-0.45-1.42-1.01-1.96-1.67c-0.54-0.66-0.81-1.44-0.81-2.34
		c0-0.29,0.05-0.6,0.16-0.96c0.11-0.35,0.26-0.68,0.46-0.99c0.2-0.31,0.42-0.59,0.66-0.84c0.24-0.25,0.5-0.43,0.76-0.54
		c0.15,0.55,0.42,1.05,0.79,1.5c0.37,0.45,0.84,0.85,1.39,1.2c-0.24,0.29-0.52,0.57-0.83,0.86c-0.31,0.29-0.46,0.63-0.46,1.02
		c0,0.35,0.23,0.62,0.69,0.79c-0.04-0.11-0.12-0.23-0.21-0.36c-0.1-0.13-0.15-0.26-0.15-0.4c0-0.4,0.14-0.72,0.43-0.97
		c0.29-0.25,0.56-0.5,0.83-0.74c1.1,0.66,2.37,1.16,3.79,1.49c1.43,0.33,2.77,0.49,4.03,0.49c2.24,0,4.33-0.2,6.25-0.61
		c1.92-0.41,3.82-0.86,5.68-1.37c1.86-0.51,3.75-0.99,5.66-1.45c1.91-0.46,3.96-0.75,6.14-0.86c-0.07,0.02-0.13,0.04-0.2,0.07
		c-0.07,0.02-0.13,0.04-0.2,0.07C85.13,81.11,83.21,81.47,81.43,81.98z M92.57,96.99c0.38,0.62,0.58,1.23,0.58,1.85
		c0,0.37-0.08,0.76-0.25,1.16s-0.39,0.75-0.68,1.07c-0.29,0.32-0.62,0.58-1.01,0.78c-0.38,0.2-0.8,0.3-1.24,0.3
		c-0.55,0-1.08-0.18-1.58-0.53c-0.51-0.35-0.77-0.9-0.79-1.65c0-0.31,0.06-0.59,0.18-0.86c0.12-0.26,0.26-0.53,0.43-0.79
		s0.32-0.53,0.48-0.81c0.15-0.27,0.25-0.56,0.3-0.84c0.42-0.18,0.81-0.39,1.19-0.64c0.37-0.25,0.7-0.54,0.99-0.87
		C91.71,95.76,92.18,96.38,92.57,96.99z M90.9,88.32c0.51,0.73,0.81,1.47,0.92,2.24c-0.68-0.57-1.31-1.14-1.88-1.7
		s-0.96-1.22-1.16-1.96C89.69,87.12,90.39,87.59,90.9,88.32z M89.13,82.8c-0.01,0.04-0.02,0.08-0.02,0.1
		c-1.03,0.11-1.94,0.42-2.72,0.92c-0.78,0.51-1.36,1.12-1.73,1.85l0.36,0.23c0.4-0.73,0.96-1.31,1.7-1.77
		c0.74-0.45,1.51-0.72,2.33-0.81c-0.09,0.26-0.23,0.49-0.41,0.68c-0.19,0.19-0.38,0.39-0.59,0.61c-0.21,0.22-0.41,0.47-0.61,0.74
		c-0.2,0.28-0.36,0.64-0.5,1.11c-0.42,0.11-0.84,0.28-1.25,0.51s-0.79,0.51-1.12,0.83s-0.6,0.67-0.81,1.04s-0.31,0.75-0.31,1.12
		c0,0.55,0.15,1.09,0.46,1.62s0.79,0.94,1.45,1.22l0.53-0.33c-0.51-0.11-0.92-0.4-1.25-0.86c-0.33-0.46-0.5-0.92-0.5-1.39
		c0-0.73,0.28-1.4,0.84-2.01c0.56-0.62,1.18-1.03,1.87-1.25c-0.07,0.4-0.1,0.84-0.1,1.32c0,0.59,0.13,1.17,0.38,1.72
		c0.25,0.55,0.57,1.09,0.94,1.62c0.37,0.53,0.79,1.04,1.25,1.55c0.46,0.51,0.92,1,1.39,1.48c-0.48,0.57-1.09,1.03-1.81,1.39
		c-0.18-0.37-0.51-0.69-0.99-0.94c-0.48-0.25-0.94-0.38-1.35-0.38c-0.53,0-0.92,0.23-1.19,0.69c0,0.13,0.12,0.24,0.36,0.33
		c0.18-0.09,0.33-0.17,0.48-0.23c0.14-0.07,0.32-0.1,0.54-0.1c0.04,0,0.08,0.04,0.12,0.13c0.03,0.09,0.05,0.15,0.05,0.2
		c0,0.24-0.13,0.57-0.4,0.99c-0.13,0.02-0.27,0.04-0.41,0.05c-0.14,0.01-0.28,0.02-0.41,0.02c-0.86,0-1.68-0.21-2.46-0.64
		c-0.78-0.43-1.48-0.99-2.1-1.68c-0.62-0.69-1.1-1.46-1.45-2.31c-0.35-0.85-0.53-1.68-0.53-2.49c0-0.66,0.09-1.36,0.26-2.11
		c-0.02,0.77,0.11,1.5,0.4,2.19s0.81,1.08,1.58,1.17c0.24,0.04,0.53,0.03,0.86-0.03s0.51-0.23,0.53-0.5
		c0.02-0.15-0.01-0.33-0.1-0.53c-0.09-0.2-0.23-0.31-0.43-0.33c-0.11,0-0.21,0.04-0.3,0.13c-0.09,0.09-0.18,0.19-0.26,0.3
		c-0.09,0.11-0.17,0.21-0.25,0.3c-0.08,0.09-0.17,0.13-0.28,0.13c-0.24,0-0.46-0.12-0.64-0.36c-0.19-0.24-0.33-0.54-0.41-0.89
		c0.15,0.02,0.31,0.08,0.46,0.18c0.15,0.1,0.31,0.17,0.46,0.21c0-0.46-0.12-0.9-0.35-1.3c-0.23-0.41-0.48-0.8-0.74-1.17
		c0.02-0.2,0.04-0.4,0.07-0.61c0.02-0.21,0.05-0.4,0.1-0.58c0.24,0.07,0.46,0.21,0.64,0.43c0.19,0.22,0.33,0.48,0.45,0.79
		c0.4-0.37,0.63-0.9,0.69-1.58c0.02-0.22-0.04-0.45-0.18-0.68c-0.14-0.23-0.27-0.46-0.38-0.68c0.51-0.51,1.06-0.96,1.67-1.37
		c0.6-0.41,1.4-0.75,2.39-1.04c0.48-0.09,0.97-0.17,1.45-0.25c0.48-0.08,0.98-0.14,1.48-0.18c0.15,0.22,0.33,0.44,0.53,0.64
		c0.2,0.21,0.3,0.45,0.3,0.71C89.15,82.72,89.14,82.76,89.13,82.8z M94.25,103.41c0.6-0.67,1.22-1.33,1.83-1.96
		c0.55-0.53,1-1.13,1.35-1.8c0.35-0.67,0.64-1.37,0.86-2.1c0.22-0.73,0.37-1.46,0.46-2.21c0.09-0.75,0.13-1.46,0.13-2.15
		c0-1.32-0.24-2.58-0.73-3.78c-0.48-1.2-1.12-2.27-1.91-3.22c-0.79-0.95-1.7-1.71-2.72-2.29c-1.02-0.58-2.07-0.92-3.15-1.01
		c0.22-0.37,0.33-0.73,0.33-1.06c0-0.29-0.09-0.55-0.26-0.79c1.89,0.24,3.52,0.72,4.88,1.44s2.49,1.58,3.38,2.61
		s1.54,2.16,1.96,3.42c0.42,1.25,0.63,2.52,0.63,3.79c0.02,1.65-0.24,3.11-0.78,4.39c-0.54,1.28-1.22,2.43-2.05,3.46
		c-0.82,1.03-1.74,1.98-2.75,2.84c-1.01,0.86-1.99,1.69-2.94,2.51C93.15,104.78,93.64,104.08,94.25,103.41z"/>
	<g>
		<path class="st2" d="M123.61,61.15c2.54-0.65,4.19-2.28,4.95-4.9C124.95,57.04,123.55,58.89,123.61,61.15z"/>
		<path class="st2" d="M129.26,58.36c2.11-0.54,3.47-1.89,4.1-4.07C130.37,54.96,129.21,56.49,129.26,58.36z"/>
		<path class="st2" d="M133.79,55.84c1.85-0.29,3.22-1.31,4.1-3.06C135.28,53.11,134.06,54.29,133.79,55.84z"/>
		<path class="st2" d="M141.17,53.66c1.33,0.07,2.43-0.43,3.31-1.51C142.62,51.99,141.6,52.63,141.17,53.66z"/>
		<path class="st2" d="M124.92,62.21c2.44,1,4.79,0.7,7.04-0.89C128.57,59.8,126.3,60.41,124.92,62.21z"/>
		<path class="st2" d="M129.97,59.59c2.03,0.83,3.97,0.58,5.84-0.74C133,57.59,131.11,58.1,129.97,59.59z"/>
		<path class="st2" d="M133.79,57.29c1.78,0.73,3.49,0.51,5.13-0.66C136.45,55.52,134.79,55.97,133.79,57.29z"/>
		<path class="st2" d="M137.85,54.57c1.33-0.21,2.32-0.94,2.96-2.2C138.92,52.6,138.04,53.45,137.85,54.57z"/>
		<path class="st2" d="M138.38,55.53c1.28,0.53,2.52,0.37,3.7-0.48C140.3,54.25,139.1,54.58,138.38,55.53z"/>
	</g>
</g>
</svg>
