<?xml version="1.0" encoding="utf-8"?>
<!-- Generator: Adobe Illustrator 25.0.0, SVG Export Plug-In . SVG Version: 6.00 Build 0)  -->
<svg version="1.1" id="Layer_1" xmlns="http://www.w3.org/2000/svg" xmlns:xlink="http://www.w3.org/1999/xlink" x="0px" y="0px"
	 viewBox="0 0 258.12 162" style="enable-background:new 0 0 258.12 162;" xml:space="preserve">
<style type="text/css">
	.st0{fill:#E3C564;}
	.st1{fill:#322D31;}
	.st2{fill:#B5862D;stroke:#B5862D;stroke-width:0.5;stroke-miterlimit:10;}
</style>
<g>
	<path class="st0" d="M92.15,78.84c-0.15,0.01-0.31,0.09-0.46,0.25c-0.3,0.31-0.46,0.68-0.47,1.12c-0.01,0.44-0.02,0.86-0.02,1.25
		c-0.02,2.13-0.42,3.89-1.19,5.28c-0.77,1.39-1.71,2.6-2.82,3.65c-1.11,1.05-2.29,2.01-3.53,2.9c-1.24,0.89-2.36,1.92-3.35,3.09
		c0.02-0.15,0.05-0.31,0.1-0.48c0.04-0.17,0.09-0.32,0.13-0.48c1.12-0.97,2.25-1.89,3.38-2.77s2.15-1.85,3.04-2.9
		c0.89-1.06,1.62-2.25,2.18-3.6c0.56-1.34,0.83-2.96,0.81-4.85c0-2-0.52-3.88-1.55-5.64c0.04-0.24,0.08-0.47,0.12-0.69
		c0.03-0.22,0.05-0.44,0.05-0.66c0-0.22-0.07-0.41-0.2-0.58c-0.13-0.17-0.24-0.33-0.33-0.51c-0.07,0.37-0.24,0.63-0.53,0.76
		c-0.09-0.2-0.17-0.4-0.23-0.59c-0.07-0.2-0.1-0.4-0.1-0.59c0-0.26,0.09-0.47,0.28-0.63c0.19-0.15,0.43-0.2,0.74-0.13
		c0.04-0.15-0.02-0.32-0.2-0.5c-0.18-0.18-0.34-0.26-0.5-0.26c-0.37,0-0.62,0.12-0.73,0.35s-0.16,0.48-0.16,0.74
		c0,0.24,0.04,0.48,0.13,0.73c0.09,0.24,0.19,0.47,0.3,0.69c-1.03-1.19-2.31-2.19-3.83-3c-1.52-0.81-3.26-1.33-5.21-1.55
		c-0.11-0.18-0.17-0.36-0.17-0.56c0-0.11,0.03-0.22,0.08-0.33c0.05-0.11,0.08-0.21,0.08-0.3c-0.24,0-0.57,0.12-0.99,0.35
		c-0.42,0.23-0.68,0.58-0.79,1.04c-2.16,0.09-4.2,0.34-6.12,0.76c-1.93,0.42-3.81,0.86-5.66,1.34c-1.85,0.47-3.7,0.91-5.54,1.3
		c-1.8,0.39-3.67,0.62-5.6,0.72c-0.02,0-0.04,0-0.06,0c-0.03,0-0.06,0-0.08,0.01c0,0,0,0,0-0.01c-0.02,0-0.04,0-0.06,0
		c-0.01,0-0.01,0-0.01,0h-0.7c0,0-0.01,0-0.01,0c-0.22,0.01-0.44,0.01-0.66,0c-0.56-0.01-1.13,0.01-1.68-0.08
		c-0.02,0-0.04-0.01-0.05-0.02c-0.03-0.01-0.06-0.01-0.08-0.02c-0.81-0.12-1.65-0.29-2.55-0.54c-1.04-0.3-1.99-0.69-2.82-1.17
		c0.11-0.18,0.17-0.35,0.17-0.53c0-0.68-0.24-1.26-0.73-1.75c-0.48-0.48-1.06-0.71-1.72-0.69h-0.13c-0.02-0.09-0.03-0.22-0.03-0.4
		c0-0.7,0.26-1.39,0.78-2.05c0.52-0.66,1.18-0.99,2-0.99c0.37,0,0.75,0.18,1.14,0.54c0.38,0.36,0.58,0.72,0.58,1.07
		c0,0.2-0.06,0.39-0.18,0.58c-0.12,0.19-0.26,0.37-0.41,0.54c-0.15,0.18-0.29,0.35-0.41,0.51c-0.12,0.17-0.18,0.34-0.18,0.51
		c0,0.18,0.04,0.35,0.12,0.51c0.08,0.16,0.27,0.29,0.57,0.38c-0.02-0.13-0.05-0.27-0.1-0.43c-0.04-0.15-0.07-0.3-0.07-0.43
		c0-0.22,0.06-0.4,0.19-0.53c0.13-0.13,0.27-0.26,0.42-0.38c0.15-0.12,0.28-0.27,0.4-0.45c0.12-0.18,0.18-0.44,0.18-0.79
		c0-0.55-0.27-1.02-0.81-1.42c-0.54-0.4-1.06-0.59-1.54-0.59c-0.53,0-1,0.11-1.39,0.33s-0.73,0.5-1,0.83
		c-0.26,0.33-0.46,0.69-0.6,1.09c-0.13,0.4-0.2,0.77-0.2,1.12c0,0.09,0,0.18,0.02,0.27c0.01,0.09,0.03,0.19,0.05,0.3
		c-0.3,0.11-0.6,0.3-0.88,0.58c-0.28,0.28-0.53,0.58-0.73,0.93s-0.37,0.71-0.5,1.09c-0.13,0.39-0.19,0.76-0.19,1.11
		c0,1.26,0.36,2.27,1.09,3.04c0.73,0.77,1.57,1.37,2.54,1.79c0.97,0.42,1.95,0.7,2.94,0.83c0.99,0.13,1.74,0.2,2.24,0.2
		c0.42,0,0.89-0.04,1.4-0.12c0.52-0.08,1.05-0.17,1.6-0.26c0.55-0.1,1.08-0.21,1.58-0.33c0.51-0.12,0.96-0.21,1.35-0.28
		c0.11,0.46,0.33,0.84,0.68,1.13c0.34,0.29,0.73,0.51,1.15,0.66c0.43,0.15,0.88,0.25,1.34,0.31s0.89,0.08,1.29,0.08
		c1.19,0,2.29-0.34,3.3-1.01c1.01-0.67,2-1.45,2.95-2.34s1.91-1.79,2.85-2.69c0.95-0.9,1.94-1.59,2.97-2.08h-0.03
		c0.13-0.02,0.27-0.05,0.41-0.1c0.14-0.04,0.28-0.09,0.41-0.13c-3.01,1.63-4.54,4.18-4.59,7.66c0,0.84,0.19,1.7,0.56,2.59
		c0.37,0.89,0.88,1.7,1.51,2.43c0.63,0.73,1.37,1.33,2.22,1.8s1.74,0.71,2.68,0.71c0.09,0,0.17-0.01,0.25-0.02
		c0.08-0.01,0.16-0.02,0.25-0.02c-0.15,0.24-0.29,0.49-0.41,0.74s-0.18,0.5-0.18,0.74c0,0.7,0.15,1.3,0.46,1.78
		c0.31,0.48,0.7,0.88,1.16,1.19c0.46,0.31,0.97,0.53,1.52,0.66c0.55,0.13,1.07,0.2,1.56,0.2c0.88,0,1.64-0.19,2.27-0.56
		c0.63-0.37,1.15-0.85,1.56-1.42c0.41-0.57,0.71-1.2,0.91-1.88c0.2-0.68,0.3-1.34,0.3-1.98c0-1.34-0.26-2.45-0.79-3.32
		s-1.13-1.62-1.82-2.26c0-0.46-0.1-0.95-0.31-1.47c-0.21-0.52-0.49-1-0.84-1.44c-0.35-0.44-0.76-0.83-1.24-1.17
		c-0.47-0.34-0.98-0.58-1.53-0.71c-0.02-0.11-0.03-0.29-0.03-0.53c0-0.48,0.17-0.93,0.51-1.34c0.34-0.41,0.65-0.83,0.94-1.27
		c1.08,0.09,2.13,0.48,3.16,1.17c1.03,0.69,1.93,1.55,2.7,2.56c-0.46-0.31-1-0.57-1.61-0.78c-0.61-0.21-1.3-0.34-2.07-0.38
		c-0.18,0.24-0.18,0.53,0,0.86c1.08-0.15,2.02-0.06,2.82,0.28c0.8,0.34,1.45,0.9,1.96,1.67c0.4,0.75,0.71,1.5,0.95,2.26
		c0.23,0.76,0.35,1.49,0.35,2.19v0.3c-0.57-0.15-1.14-0.66-1.72-1.52c-0.09,0.24-0.19,0.48-0.31,0.73c-0.12,0.24-0.19,0.5-0.21,0.76
		c-0.04,0.55,0.08,0.91,0.36,1.07s0.63,0.24,1.02,0.21c0.15-0.02,0.28,0.03,0.38,0.17c0.1,0.13,0.2,0.28,0.31,0.43
		c-0.15,1.03-0.43,2.04-0.83,3.02c-0.4,0.98-0.93,1.9-1.62,2.76c-0.42,0.55-0.88,1.08-1.37,1.6c-0.5,0.52-0.95,1.05-1.35,1.6
		c-0.41,0.55-0.74,1.13-1.01,1.73c-0.26,0.61-0.4,1.27-0.4,2l0.49,0.17c0.64-0.88,1.36-1.67,2.18-2.36
		c0.81-0.69,1.64-1.36,2.49-2.01s1.68-1.32,2.51-2.01c0.83-0.69,1.55-1.48,2.18-2.38c0.63-0.89,1.13-1.91,1.52-3.07
		c0.38-1.16,0.57-2.52,0.54-4.11c0-0.4,0.07-0.79,0.21-1.17c0.14-0.38,0.41-0.73,0.81-1.04C92.49,78.91,92.3,78.83,92.15,78.84z
		 M42.22,69.09c0.46,0,0.92,0.21,1.39,0.63c0.46,0.42,0.69,0.84,0.69,1.25c0,0.18-0.05,0.35-0.17,0.53
		c-0.51-0.33-0.93-0.69-1.27-1.09c-0.34-0.4-0.58-0.84-0.71-1.32H42.22z M65.64,74.39c-0.72,0.8-1.42,1.55-2.13,2.24
		c-0.7,0.69-1.46,1.28-2.28,1.75c-0.81,0.47-1.79,0.71-2.94,0.71c-0.7,0-1.42-0.11-2.14-0.33c-0.73-0.22-1.24-0.73-1.55-1.52
		c2.29-0.73,4.53-1.56,6.72-2.51c2.19-0.95,4.46-1.79,6.81-2.54C67.18,72.85,66.35,73.58,65.64,74.39z M69.58,71.04
		c-1.78,0.51-3.51,1.07-5.18,1.7c-1.67,0.63-3.32,1.28-4.95,1.95c-1.63,0.67-3.31,1.29-5.05,1.86c-0.07-0.37-0.09-0.74-0.07-1.09
		c-0.22,0.09-0.34,0.26-0.35,0.53c-0.01,0.26-0.02,0.49-0.02,0.69c-1.08,0.35-2.19,0.64-3.35,0.87c-1.15,0.23-2.29,0.35-3.42,0.35
		c-0.68,0-1.46-0.11-2.33-0.33c-0.87-0.22-1.69-0.56-2.46-1.01c-0.77-0.45-1.42-1.01-1.96-1.67c-0.54-0.66-0.81-1.44-0.81-2.34
		c0-0.29,0.05-0.6,0.16-0.96c0.11-0.35,0.26-0.68,0.46-0.99c0.2-0.31,0.42-0.59,0.66-0.84c0.24-0.25,0.5-0.43,0.76-0.54
		c0.15,0.55,0.42,1.05,0.79,1.5c0.37,0.45,0.84,0.85,1.39,1.2c-0.24,0.29-0.52,0.57-0.83,0.86c-0.31,0.29-0.46,0.63-0.46,1.02
		c0,0.35,0.23,0.62,0.69,0.79c-0.04-0.11-0.12-0.23-0.21-0.36c-0.1-0.13-0.15-0.26-0.15-0.4c0-0.4,0.14-0.72,0.43-0.97
		c0.29-0.25,0.56-0.5,0.83-0.74c1.1,0.66,2.37,1.16,3.79,1.49c1.43,0.33,2.77,0.49,4.03,0.49c2.24,0,4.33-0.2,6.25-0.61
		c1.92-0.41,3.82-0.86,5.68-1.37c1.86-0.51,3.75-0.99,5.66-1.45c1.91-0.46,3.96-0.75,6.14-0.86c-0.07,0.02-0.13,0.04-0.2,0.07
		c-0.07,0.02-0.13,0.04-0.2,0.07C73.28,70.17,71.36,70.53,69.58,71.04z M80.72,86.05c0.38,0.62,0.58,1.23,0.58,1.85
		c0,0.37-0.08,0.76-0.25,1.16s-0.39,0.75-0.68,1.07c-0.29,0.32-0.62,0.58-1.01,0.78c-0.38,0.2-0.8,0.3-1.24,0.3
		c-0.55,0-1.08-0.18-1.58-0.53c-0.51-0.35-0.77-0.9-0.79-1.65c0-0.31,0.06-0.59,0.18-0.86c0.12-0.26,0.26-0.53,0.43-0.79
		s0.32-0.53,0.48-0.81c0.15-0.27,0.25-0.56,0.3-0.84c0.42-0.18,0.81-0.39,1.19-0.64c0.37-0.25,0.7-0.54,0.99-0.87
		C79.86,84.82,80.33,85.44,80.72,86.05z M79.05,77.37c0.51,0.73,0.81,1.47,0.92,2.24c-0.68-0.57-1.31-1.14-1.88-1.7
		s-0.96-1.22-1.16-1.96C77.84,76.17,78.54,76.65,79.05,77.37z M77.28,71.86c-0.01,0.04-0.02,0.08-0.02,0.1
		c-1.03,0.11-1.94,0.42-2.72,0.92c-0.78,0.51-1.36,1.12-1.73,1.85l0.36,0.23c0.4-0.73,0.96-1.31,1.7-1.77
		c0.74-0.45,1.51-0.72,2.33-0.81c-0.09,0.26-0.23,0.49-0.41,0.68c-0.19,0.19-0.38,0.39-0.59,0.61c-0.21,0.22-0.41,0.47-0.61,0.74
		c-0.2,0.28-0.36,0.64-0.5,1.11c-0.42,0.11-0.84,0.28-1.25,0.51s-0.79,0.51-1.12,0.83s-0.6,0.67-0.81,1.04
		c-0.21,0.37-0.31,0.75-0.31,1.12c0,0.55,0.15,1.09,0.46,1.62s0.79,0.94,1.45,1.22l0.53-0.33c-0.51-0.11-0.92-0.4-1.25-0.86
		c-0.33-0.46-0.5-0.92-0.5-1.39c0-0.73,0.28-1.4,0.84-2.01c0.56-0.62,1.18-1.03,1.87-1.25c-0.07,0.4-0.1,0.84-0.1,1.32
		c0,0.59,0.13,1.17,0.38,1.72c0.25,0.55,0.57,1.09,0.94,1.62c0.37,0.53,0.79,1.04,1.25,1.55c0.46,0.51,0.92,1,1.39,1.48
		c-0.48,0.57-1.09,1.03-1.81,1.39c-0.18-0.37-0.51-0.69-0.99-0.94c-0.48-0.25-0.94-0.38-1.35-0.38c-0.53,0-0.92,0.23-1.19,0.69
		c0,0.13,0.12,0.24,0.36,0.33c0.18-0.09,0.33-0.17,0.48-0.23c0.14-0.07,0.32-0.1,0.54-0.1c0.04,0,0.08,0.04,0.12,0.13
		c0.03,0.09,0.05,0.15,0.05,0.2c0,0.24-0.13,0.57-0.4,0.99c-0.13,0.02-0.27,0.04-0.41,0.05c-0.14,0.01-0.28,0.02-0.41,0.02
		c-0.86,0-1.68-0.21-2.46-0.64c-0.78-0.43-1.48-0.99-2.1-1.68c-0.62-0.69-1.1-1.46-1.45-2.31c-0.35-0.85-0.53-1.68-0.53-2.49
		c0-0.66,0.09-1.36,0.26-2.11c-0.02,0.77,0.11,1.5,0.4,2.19s0.81,1.08,1.58,1.17c0.24,0.04,0.53,0.03,0.86-0.03s0.51-0.23,0.53-0.5
		c0.02-0.15-0.01-0.33-0.1-0.53c-0.09-0.2-0.23-0.31-0.43-0.33c-0.11,0-0.21,0.04-0.3,0.13c-0.09,0.09-0.18,0.19-0.26,0.3
		c-0.09,0.11-0.17,0.21-0.25,0.3c-0.08,0.09-0.17,0.13-0.28,0.13c-0.24,0-0.46-0.12-0.64-0.36c-0.19-0.24-0.33-0.54-0.41-0.89
		c0.15,0.02,0.31,0.08,0.46,0.18c0.15,0.1,0.31,0.17,0.46,0.21c0-0.46-0.12-0.9-0.35-1.3c-0.23-0.41-0.48-0.8-0.74-1.17
		c0.02-0.2,0.04-0.4,0.07-0.61c0.02-0.21,0.05-0.4,0.1-0.58c0.24,0.07,0.46,0.21,0.64,0.43c0.19,0.22,0.33,0.48,0.45,0.79
		c0.4-0.37,0.63-0.9,0.69-1.58c0.02-0.22-0.04-0.45-0.18-0.68c-0.14-0.23-0.27-0.46-0.38-0.68c0.51-0.51,1.06-0.96,1.67-1.37
		c0.6-0.41,1.4-0.75,2.39-1.04c0.48-0.09,0.97-0.17,1.45-0.25c0.48-0.08,0.98-0.14,1.48-0.18c0.15,0.22,0.33,0.44,0.53,0.64
		c0.2,0.21,0.3,0.45,0.3,0.71C77.3,71.77,77.3,71.82,77.28,71.86z M82.4,92.47c0.6-0.67,1.22-1.33,1.83-1.96
		c0.55-0.53,1-1.13,1.35-1.8c0.35-0.67,0.64-1.37,0.86-2.1c0.22-0.73,0.37-1.46,0.46-2.21c0.09-0.75,0.13-1.46,0.13-2.15
		c0-1.32-0.24-2.58-0.73-3.78c-0.48-1.2-1.12-2.27-1.91-3.22c-0.79-0.95-1.7-1.71-2.72-2.29c-1.02-0.58-2.07-0.92-3.15-1.01
		c0.22-0.37,0.33-0.73,0.33-1.06c0-0.29-0.09-0.55-0.26-0.79c1.89,0.24,3.52,0.72,4.88,1.44s2.49,1.58,3.38,2.61
		s1.54,2.16,1.96,3.42c0.42,1.25,0.63,2.52,0.63,3.79c0.02,1.65-0.24,3.11-0.78,4.39c-0.54,1.28-1.22,2.43-2.05,3.46
		c-0.82,1.03-1.74,1.98-2.75,2.84c-1.01,0.86-1.99,1.69-2.94,2.51C81.3,93.84,81.79,93.14,82.4,92.47z"/>
	<path d="M104.99,93.54l0.26-0.07c-0.02-1.17-0.03-2.27-0.03-3.32c0-1.04,0.04-1.95,0.12-2.72c0.08-0.77,0.22-1.39,0.45-1.85
		c0.22-0.46,0.53-0.69,0.92-0.69c0.09,0.02,0.15,0.08,0.2,0.18c0.04,0.1,0.03,0.29-0.03,0.58c-0.11,0.07-0.24,0.14-0.38,0.21
		c-0.14,0.08-0.27,0.2-0.38,0.38c-0.22,0.4-0.38,1.16-0.46,2.28c-0.09,1.12-0.13,2.76-0.13,4.92l0.3-0.07
		c0.26,0.15,0.29,0.41,0.07,0.76c-0.66,0.37-1.19,0.82-1.58,1.35c-0.4,0.53-0.81,1.1-1.25,1.72c-0.66,0.02-0.99-0.18-0.99-0.59
		V82.72c-0.13-0.07-0.27-0.05-0.41,0.03c-0.14,0.09-0.28,0.13-0.41,0.13c-0.13,0-0.2-0.09-0.21-0.26c-0.01-0.18,0.04-0.34,0.15-0.5
		c0.66-0.37,1.19-0.82,1.6-1.35c0.41-0.53,0.82-1.1,1.24-1.72c0.66-0.02,0.99,0.18,0.99,0.59v2.94c0.55-0.31,1.07-0.79,1.55-1.45
		c0.48-0.66,0.98-1.35,1.49-2.08c0.31,0,0.62,0.08,0.94,0.25c0.32,0.17,0.6,0.38,0.84,0.64c0.24,0.26,0.44,0.55,0.59,0.86
		c0.15,0.31,0.23,0.61,0.23,0.89c0,0.62-0.14,1.2-0.43,1.75c-0.29,0.55-0.61,1.04-0.96,1.47c-0.35,0.43-0.67,0.8-0.96,1.11
		c-0.29,0.31-0.43,0.53-0.43,0.66c0,0.29,0.17,0.54,0.51,0.76c0.34,0.22,0.51,0.47,0.51,0.76c0,0.31-0.07,0.56-0.21,0.76
		c-0.14,0.2-0.3,0.3-0.48,0.3c0-0.22-0.06-0.4-0.17-0.53c-0.11-0.13-0.23-0.26-0.36-0.38c-0.13-0.12-0.25-0.27-0.35-0.45
		c-0.1-0.18-0.15-0.41-0.15-0.69c0-0.26,0.07-0.53,0.21-0.79c0.14-0.26,0.3-0.52,0.48-0.78c0.18-0.25,0.33-0.51,0.48-0.76
		c0.14-0.25,0.21-0.52,0.21-0.81c0-0.57-0.18-1.03-0.53-1.39c-0.35-0.35-0.74-0.53-1.16-0.53c-0.48,0-0.84,0.19-1.06,0.56
		c-0.22,0.37-0.5,0.73-0.83,1.06V93.54z"/>
	<path d="M118.55,86.83c0,2.02,0.23,3.56,0.69,4.63s1.19,1.86,2.18,2.39c0.18-0.09,0.37-0.21,0.59-0.36s0.41-0.23,0.56-0.23
		c0.02,0.02,0.06,0.1,0.12,0.23s0.06,0.25,0.02,0.36c-0.35,0.22-0.61,0.47-0.78,0.74s-0.31,0.56-0.43,0.86
		c-0.12,0.3-0.24,0.59-0.35,0.87c-0.11,0.29-0.3,0.56-0.56,0.82c-0.79,0-1.5-0.33-2.13-0.99s-1.12-1.49-1.47-2.5
		c-0.33,0.13-0.61,0.33-0.83,0.59c-0.22,0.26-0.41,0.55-0.56,0.87c-0.15,0.32-0.3,0.65-0.43,1c-0.13,0.35-0.3,0.68-0.5,0.99
		c-0.57,0-1.17-0.22-1.78-0.67c-0.62-0.45-1.17-1.04-1.67-1.78s-0.9-1.56-1.22-2.49c-0.32-0.92-0.48-1.85-0.48-2.8
		c0-0.64,0.09-1.34,0.26-2.12c0.18-0.78,0.42-1.57,0.73-2.39c0.31-0.81,0.69-1.59,1.14-2.34c0.45-0.75,0.95-1.39,1.5-1.94
		c0.37-0.37,0.7-0.69,0.97-0.94c0.27-0.25,0.55-0.45,0.83-0.59c0.27-0.14,0.57-0.24,0.89-0.3c0.32-0.05,0.72-0.08,1.2-0.08
		c0.57,0,1.13,0.11,1.67,0.33c0.54,0.22,1.11,0.33,1.7,0.33c0.13,0,0.27-0.04,0.41-0.13c0.14-0.08,0.28-0.17,0.41-0.25
		c0.02-0.04,0.05-0.09,0.1-0.14c0.04-0.05,0.09-0.1,0.13-0.14c0.11,0,0.22,0.02,0.33,0.07c0.11,0.04,0.18,0.13,0.2,0.26
		c-1.14,1.12-2.01,2.27-2.59,3.44C118.84,83.61,118.55,85.07,118.55,86.83z M116.31,89.65c0-1.47,0.3-2.9,0.89-4.29
		c0.59-1.39,1.33-2.71,2.21-3.96c-0.81,0.02-1.62-0.05-2.43-0.23c-0.8-0.18-1.61-0.26-2.43-0.26c-0.66,0-1.18,0.2-1.57,0.61
		c-0.38,0.41-0.68,0.91-0.87,1.5c-0.2,0.59-0.33,1.23-0.4,1.91c-0.07,0.68-0.1,1.3-0.1,1.85c0,0.92,0.12,1.81,0.36,2.66
		c0.24,0.85,0.55,1.58,0.94,2.21c0.38,0.63,0.81,1.13,1.27,1.5c0.46,0.37,0.9,0.56,1.32,0.56c0.44,0,0.89-0.15,1.35-0.46
		C116.49,92.08,116.31,90.88,116.31,89.65z M114.72,92.82c-0.07,0.11-0.12,0.18-0.17,0.2c-0.7-0.64-1.23-1.39-1.57-2.24
		s-0.51-1.72-0.51-2.57c0-0.26,0.04-0.57,0.12-0.91c0.08-0.34,0.2-0.68,0.38-1.01s0.41-0.64,0.69-0.92
		c0.29-0.29,0.63-0.51,1.02-0.66c0.31,0.15,0.5,0.39,0.56,0.69c-0.77,0.04-1.36,0.42-1.78,1.14s-0.63,1.57-0.63,2.56
		c0,0.7,0.19,1.38,0.56,2.01C113.78,91.74,114.22,92.31,114.72,92.82z M119.21,90.28c0-0.42,0.09-0.77,0.28-1.06
		c0.19-0.29,0.42-0.54,0.71-0.76c0.33,0,0.47,0.12,0.43,0.36c-0.59,0.42-0.89,0.9-0.89,1.45c0,0.99,0.35,1.77,1.06,2.34
		c0.02,0.09,0.01,0.16-0.03,0.21c-0.04,0.06-0.09,0.1-0.13,0.15c-0.29-0.4-0.59-0.83-0.92-1.3S119.21,90.74,119.21,90.28z"/>
	<path d="M132.41,86.75c0,1.34,0.14,2.51,0.41,3.5c0.27,0.99,0.62,1.89,1.04,2.71c0.33,0.57,0.64,1.09,0.94,1.57
		c0.3,0.47,0.56,0.93,0.79,1.37c0.23,0.44,0.42,0.89,0.56,1.35c0.14,0.46,0.21,0.96,0.21,1.48c0,0.88-0.15,1.78-0.46,2.71
		c-0.31,0.92-0.75,1.76-1.32,2.51s-1.28,1.36-2.11,1.83c-0.84,0.47-1.78,0.71-2.84,0.71c-0.68,0-1.32-0.15-1.91-0.46
		c-0.59-0.31-1.17-0.68-1.72-1.12c-0.55-0.44-1.09-0.91-1.63-1.4c-0.54-0.5-1.09-0.94-1.67-1.34c-0.07-0.26-0.03-0.44,0.1-0.53
		c1.34,0.51,2.35,1.01,3.02,1.5c0.67,0.5,1.22,0.94,1.65,1.34c0.43,0.4,0.83,0.71,1.19,0.96c0.36,0.24,0.9,0.36,1.6,0.36
		c1.1,0,1.99-0.35,2.67-1.06c0.68-0.7,1.02-1.64,1.02-2.8c0-0.68-0.1-1.35-0.31-2.01s-0.46-1.31-0.76-1.95
		c-0.3-0.64-0.61-1.28-0.94-1.91s-0.62-1.28-0.86-1.91c-0.02-0.11-0.05-0.21-0.1-0.3s-0.09-0.18-0.13-0.26
		c-0.33,0.13-0.61,0.33-0.83,0.59c-0.22,0.26-0.41,0.56-0.56,0.87c-0.15,0.32-0.3,0.66-0.43,1.01c-0.13,0.35-0.3,0.68-0.5,0.99
		c-0.57,0-1.17-0.23-1.78-0.68c-0.62-0.45-1.17-1.04-1.67-1.78c-0.5-0.74-0.9-1.57-1.22-2.49c-0.32-0.92-0.48-1.86-0.48-2.81
		c0-0.62,0.09-1.32,0.26-2.11c0.18-0.79,0.42-1.6,0.73-2.41c0.31-0.81,0.69-1.59,1.14-2.34c0.45-0.75,0.95-1.4,1.5-1.95
		c0.37-0.37,0.7-0.69,0.97-0.94c0.27-0.25,0.55-0.45,0.83-0.59c0.27-0.14,0.57-0.24,0.89-0.3c0.32-0.05,0.72-0.08,1.2-0.08
		c0.57,0,1.13,0.11,1.67,0.33c0.54,0.22,1.11,0.33,1.7,0.33c0.13,0,0.27-0.04,0.41-0.13c0.14-0.08,0.28-0.17,0.41-0.25
		c0.02-0.04,0.05-0.09,0.1-0.14c0.04-0.05,0.09-0.1,0.13-0.14c0.11,0,0.22,0.02,0.33,0.07c0.11,0.04,0.18,0.13,0.2,0.26
		c-1.14,1.12-2.01,2.28-2.59,3.46C132.7,83.54,132.41,85.01,132.41,86.75z M130.17,89.55c0-1.5,0.3-2.93,0.89-4.31
		c0.59-1.37,1.33-2.69,2.21-3.94c-0.81,0.02-1.62-0.05-2.43-0.23c-0.8-0.18-1.61-0.26-2.43-0.26c-0.66,0-1.18,0.2-1.57,0.61
		c-0.38,0.41-0.68,0.91-0.87,1.5c-0.2,0.59-0.33,1.23-0.4,1.91c-0.07,0.68-0.1,1.3-0.1,1.85c0,0.92,0.12,1.81,0.36,2.66
		c0.24,0.85,0.55,1.58,0.94,2.21c0.38,0.63,0.81,1.13,1.27,1.5s0.9,0.56,1.32,0.56c0.44,0,0.89-0.15,1.35-0.46
		C130.35,91.98,130.17,90.78,130.17,89.55z M128.58,92.72c-0.07,0.11-0.12,0.18-0.17,0.2c-0.7-0.64-1.23-1.39-1.57-2.24
		c-0.34-0.86-0.51-1.72-0.51-2.57c0-0.26,0.04-0.57,0.12-0.91c0.08-0.34,0.2-0.68,0.38-1.01s0.41-0.64,0.69-0.92
		c0.29-0.29,0.63-0.51,1.02-0.66c0.31,0.15,0.5,0.39,0.56,0.69c-0.77,0.02-1.36,0.4-1.78,1.12s-0.63,1.58-0.63,2.57
		c0,0.68,0.19,1.35,0.56,2C127.64,91.63,128.08,92.21,128.58,92.72z M127.72,101.3c-0.31-0.07-0.48-0.28-0.53-0.63
		c0.24-0.44,0.56-0.82,0.96-1.14c0.4-0.32,0.9-0.48,1.52-0.48c0.77,0,1.47,0.3,2.11,0.89c0.64,0.59,0.96,1.47,0.96,2.64
		c0,0.48-0.14,0.96-0.43,1.44c-0.29,0.47-0.63,0.83-1.02,1.07c-0.13,0-0.22-0.11-0.26-0.33c0.53-0.24,0.91-0.58,1.14-1.02
		c0.23-0.44,0.35-0.97,0.35-1.58c0-0.29-0.08-0.57-0.23-0.86c-0.15-0.29-0.36-0.54-0.61-0.78s-0.53-0.42-0.83-0.56
		s-0.58-0.21-0.84-0.21c-0.44,0-0.88,0.14-1.32,0.43C128.24,100.46,127.92,100.84,127.72,101.3z M133.07,90.21
		c0-0.44,0.09-0.79,0.28-1.06c0.19-0.26,0.42-0.52,0.71-0.76c0.33,0,0.47,0.12,0.43,0.36c-0.59,0.42-0.89,0.9-0.89,1.45
		c0,0.99,0.35,1.77,1.06,2.34c0.02,0.09,0.01,0.16-0.03,0.21c-0.04,0.06-0.09,0.1-0.13,0.15c-0.29-0.4-0.59-0.83-0.92-1.3
		S133.07,90.67,133.07,90.21z"/>
	<path d="M140.69,78.92c0.73-0.04,1.46,0.15,2.19,0.59c0.74,0.44,1.4,1.01,2,1.72c0.59,0.7,1.08,1.48,1.45,2.34s0.56,1.68,0.56,2.48
		c0,0.97-0.13,1.85-0.38,2.64c-0.25,0.79-0.57,1.52-0.96,2.18s-0.81,1.27-1.27,1.83s-0.91,1.09-1.35,1.6
		c-0.46,0.51-0.79,1.02-0.99,1.53c-0.2,0.52-0.4,0.96-0.59,1.34c-0.79-0.11-1.56-0.37-2.31-0.79s-1.41-0.96-1.98-1.62
		c-0.57-0.66-1.04-1.44-1.39-2.33c-0.35-0.89-0.53-1.86-0.53-2.92c0-0.81,0.14-1.66,0.43-2.52c0.29-0.87,0.65-1.7,1.11-2.51
		s0.97-1.55,1.57-2.23c0.59-0.68,1.2-1.25,1.82-1.72c0.04-0.29,0.12-0.57,0.23-0.84C140.41,79.42,140.54,79.17,140.69,78.92z
		 M144.65,89.25c0-0.73-0.09-1.46-0.28-2.21c-0.19-0.75-0.47-1.46-0.84-2.15c-0.37-0.68-0.85-1.29-1.44-1.81
		c-0.58-0.53-1.26-0.92-2.03-1.19c-0.46,0.09-0.86,0.31-1.21,0.66c-0.34,0.35-0.62,0.77-0.82,1.25c-0.21,0.48-0.37,1.01-0.48,1.58
		c-0.11,0.57-0.17,1.12-0.17,1.65c0,0.73,0.09,1.45,0.28,2.18c0.19,0.73,0.48,1.41,0.87,2.05c0.4,0.64,0.91,1.21,1.55,1.72
		c0.64,0.51,1.42,0.9,2.34,1.19c0.24-0.35,0.5-0.68,0.76-0.97c0.26-0.3,0.5-0.62,0.71-0.96c0.21-0.34,0.38-0.75,0.53-1.22
		C144.58,90.55,144.65,89.96,144.65,89.25z M141.25,85.49c-0.75,0.13-1.32,0.5-1.72,1.11c-0.4,0.61-0.59,1.23-0.59,1.86
		c0,1.06,0.22,1.94,0.66,2.64c0.44,0.7,1.14,1.48,2.11,2.34c-0.09,0.2-0.26,0.2-0.53,0c-0.71-0.7-1.31-1.41-1.82-2.11
		c-0.51-0.7-0.76-1.69-0.76-2.97c0-0.35,0.04-0.73,0.13-1.12s0.23-0.76,0.43-1.11c0.2-0.34,0.45-0.63,0.76-0.87
		c0.31-0.24,0.68-0.4,1.12-0.46C141.41,84.97,141.47,85.21,141.25,85.49z"/>
	<path d="M154.09,81.23c-0.48,0-0.95,0.15-1.4,0.45c-0.45,0.3-0.75,0.65-0.91,1.07c-0.04,0.13-0.09,0.28-0.13,0.43
		c-0.04,0.15-0.08,0.32-0.1,0.5v9.8l0.23-0.07c-0.02-1.17,0.01-2.27,0.08-3.3c0.08-1.03,0.23-1.94,0.45-2.71s0.51-1.38,0.86-1.83
		c0.35-0.45,0.79-0.68,1.32-0.68c0.09,0.02,0.18,0.07,0.26,0.15c0.09,0.08,0.1,0.26,0.03,0.54c-0.59,0.22-1.05,0.47-1.37,0.74
		c-0.32,0.28-0.56,0.69-0.73,1.24s-0.29,1.28-0.36,2.19c-0.08,0.91-0.17,2.12-0.28,3.61l0.3-0.07c0.26,0.15,0.29,0.41,0.07,0.76
		c-0.66,0.37-1.18,0.82-1.57,1.35c-0.39,0.53-0.81,1.1-1.24,1.72c-0.65,0.02-0.98-0.18-0.98-0.59V82.65
		c-0.13-0.07-0.27-0.05-0.41,0.03c-0.14,0.09-0.28,0.13-0.41,0.13c-0.13,0-0.2-0.08-0.21-0.25c-0.01-0.17,0.04-0.34,0.15-0.51
		c0.66-0.37,1.19-0.82,1.6-1.35c0.41-0.53,0.82-1.1,1.24-1.72c0.66-0.02,0.99,0.18,0.99,0.59v2.08c0.53-0.75,1.08-1.37,1.67-1.88
		c0.58-0.51,1.31-0.76,2.19-0.76c0.57,0,1.07,0.12,1.5,0.35s0.94,0.35,1.53,0.35c0.13,0,0.29-0.08,0.48-0.23s0.35-0.27,0.48-0.36
		c0.02-0.04,0.05-0.09,0.1-0.15c0.04-0.05,0.09-0.1,0.13-0.15c0.11,0,0.22,0.02,0.33,0.07c0.11,0.04,0.18,0.13,0.2,0.26
		c-1.14,1.12-2.01,2.27-2.59,3.45c-0.58,1.18-0.88,2.65-0.88,4.41c0,2.02,0.23,3.57,0.69,4.64c0.46,1.07,1.19,1.86,2.18,2.39
		c0.18-0.09,0.37-0.21,0.59-0.36s0.41-0.23,0.56-0.23c0.02,0.02,0.06,0.1,0.12,0.23c0.05,0.13,0.06,0.25,0.02,0.36
		c-0.35,0.22-0.61,0.47-0.78,0.74c-0.17,0.28-0.31,0.56-0.43,0.86c-0.12,0.3-0.24,0.59-0.35,0.87c-0.11,0.29-0.3,0.56-0.56,0.83
		c-0.77-0.07-1.43-0.37-1.98-0.91c-0.55-0.54-1-1.18-1.35-1.93c-0.35-0.75-0.6-1.55-0.76-2.39c-0.15-0.85-0.22-1.61-0.2-2.29
		c0-1.47,0.3-2.88,0.89-4.21c0.59-1.33,1.33-2.62,2.21-3.88c-0.42,0-0.75-0.02-1.01-0.07c-0.25-0.04-0.5-0.1-0.73-0.17
		c-0.23-0.07-0.48-0.13-0.74-0.18C154.82,81.26,154.49,81.23,154.09,81.23z M157.39,90.38c0-0.42,0.09-0.77,0.26-1.06
		c0.18-0.29,0.42-0.54,0.73-0.76c0.33,0,0.47,0.12,0.43,0.36c-0.59,0.42-0.89,0.9-0.89,1.45c0,0.99,0.35,1.77,1.06,2.34
		c0.02,0.09,0,0.16-0.05,0.21c-0.05,0.06-0.09,0.1-0.12,0.15c-0.29-0.4-0.59-0.83-0.92-1.3S157.39,90.84,157.39,90.38z"/>
	<path d="M167.29,74.53c-0.76,2.77-2.18,6.3-3.1,7.82l-1.85,0.23c0.73-1.95,1.58-5.38,1.95-7.76L167.29,74.53z"/>
	<path d="M177.39,94.96c-0.35,0.26-0.65,0.57-0.89,0.91c-0.24,0.34-0.41,0.73-0.5,1.17c-0.31,0.09-0.54,0.03-0.69-0.17
		c-0.46-0.53-1.03-0.89-1.72-1.09c-0.68-0.2-1.4-0.3-2.14-0.3c-0.48,0-0.95,0.11-1.4,0.33c-0.45,0.22-0.83,0.57-1.14,1.06
		c-0.13,0-0.25-0.02-0.35-0.07c-0.1-0.04-0.16-0.14-0.18-0.3c0.31-0.42,0.64-0.84,0.99-1.27c0.35-0.43,0.74-0.82,1.15-1.17
		s0.86-0.64,1.32-0.86s0.97-0.33,1.52-0.33c0.59,0,1.28,0.16,2.06,0.48c0.78,0.32,1.35,0.67,1.7,1.04c0.31-0.33,0.52-0.73,0.63-1.19
		c0.11-0.46,0.17-0.92,0.17-1.39c0-0.64-0.07-1.29-0.21-1.95c-0.14-0.66-0.47-1.23-0.97-1.72c-0.07-0.07-0.14-0.13-0.21-0.2
		c-0.08-0.07-0.16-0.13-0.25-0.2c-0.33,0.62-0.89,1.13-1.67,1.55c-0.78,0.42-1.52,0.63-2.23,0.63c-0.2,0-0.34-0.01-0.43-0.03
		c-0.02,0.02-0.04,0.06-0.05,0.1c-0.01,0.04-0.03,0.09-0.05,0.13c-0.09-0.02-0.18-0.05-0.28-0.1c-0.1-0.04-0.17-0.13-0.21-0.26
		c0-0.02,0-0.03,0.02-0.03c0.01,0,0.02-0.01,0.02-0.03c-0.22-0.11-0.43-0.23-0.64-0.36c-0.21-0.13-0.41-0.27-0.61-0.43
		c-0.42-0.33-0.75-0.69-1.01-1.09s-0.38-0.8-0.38-1.22c0-1.47,0.36-2.67,1.07-3.6s1.63-1.66,2.76-2.21c0.46-0.2,0.87-0.46,1.24-0.78
		c0.36-0.32,0.67-0.67,0.91-1.04c0.04-0.11,0.17-0.14,0.36-0.1c0.75,0.66,1.43,0.99,2.05,0.99c0.35,0,0.68-0.09,0.99-0.28
		c0.31-0.19,0.64-0.45,0.99-0.78c0.11,0.02,0.21,0.08,0.3,0.17c0.09,0.09,0.11,0.23,0.07,0.43c-1.14,1.78-2.5,2.67-4.06,2.67
		c-0.4,0-0.81-0.05-1.24-0.17c-0.43-0.11-0.86-0.29-1.3-0.53c-0.44,0.4-0.78,0.81-1.01,1.24c-0.23,0.43-0.35,0.91-0.35,1.44
		c0,0.48,0.13,1.07,0.38,1.75c0.25,0.68,0.62,1.23,1.11,1.65c0.79-0.66,1.69-1.11,2.71-1.35c-0.02-0.07-0.03-0.12-0.03-0.17
		c0-0.04-0.01-0.09-0.03-0.13c0.11-0.11,0.2-0.16,0.26-0.15c0.07,0.01,0.15,0.06,0.26,0.15c0.02,0.02,0.04,0.06,0.07,0.1
		c0.02,0.04,0.04,0.08,0.07,0.1c0.09-0.02,0.19-0.03,0.3-0.03s0.22,0,0.33,0c0.44,0,0.93,0.07,1.49,0.2
		c0.55,0.13,1.01,0.35,1.39,0.66c0.44,0.35,0.76,0.8,0.96,1.34c0.2,0.54,0.29,1.06,0.26,1.57c-0.02,0.59-0.15,1.13-0.38,1.62
		c-0.23,0.48-0.52,0.94-0.88,1.35s-0.74,0.81-1.16,1.17S177.79,94.61,177.39,94.96z M174.95,83.12c-0.11-0.07-0.25-0.11-0.41-0.13
		c-0.17-0.02-0.3-0.03-0.41-0.03c-0.22,0-0.44,0.08-0.66,0.23c-0.22,0.15-0.4,0.37-0.54,0.66c-0.14,0.29-0.23,0.64-0.25,1.06
		c-0.02,0.42,0.05,0.89,0.23,1.42c-0.02,0.07-0.07,0.1-0.13,0.1c-0.07,0-0.12-0.03-0.17-0.1c-0.26-0.59-0.37-1.13-0.33-1.62
		s0.17-0.9,0.36-1.25s0.43-0.62,0.71-0.81c0.27-0.19,0.52-0.28,0.74-0.28c0.22,0,0.43,0.02,0.64,0.07s0.38,0.13,0.51,0.26
		C175.24,82.88,175.14,83.03,174.95,83.12z M174.42,88.07c0.29,0,0.52-0.07,0.69-0.21c0.18-0.14,0.32-0.31,0.43-0.51
		c-0.2-0.09-0.46-0.13-0.79-0.13c-0.48,0-0.95,0.19-1.39,0.56C173.69,87.97,174.05,88.07,174.42,88.07z M177.39,93.58
		c-0.13,0.13-0.23,0.11-0.3-0.07c0.04-0.9-0.12-1.61-0.48-2.11c-0.36-0.51-0.83-0.76-1.4-0.76c-0.15,0-0.31,0.02-0.48,0.07
		c-0.17,0.04-0.28,0.14-0.35,0.3c-0.33,0.04-0.54-0.04-0.63-0.26c0.13-0.53,0.53-0.79,1.19-0.79c0.35,0,0.69,0.1,1.01,0.31
		c0.32,0.21,0.59,0.48,0.83,0.82c0.23,0.34,0.41,0.73,0.53,1.16C177.43,92.67,177.46,93.11,177.39,93.58z"/>
	<path class="st1" d="M111.23,51.35c0,0,0,0,0,0.01C111.25,51.4,111.25,51.37,111.23,51.35z"/>
	<path class="st1" d="M113.98,64.84l0.17,0.03l2.93,1.89l0.21-0.17l-1.96-5.45l-0.39-0.86L116,58.3c-0.58-3.25-1.55-4.99-2.9-5.22
		l-0.73,0.07l-0.03,0.19l0.09,1.59l-0.1,0.57l-0.35-0.06l-1.34-0.62l-0.26,0.02l0.02,0.33l0.08,0.61c-0.44,2.02-0.85,3-1.23,2.94
		c-0.59-0.1-0.86-0.28-0.81-0.54l-3.41,0.46c-0.12,0.07-0.27,0.09-0.41,0.05l-0.06,0.01l-0.02-0.03c-0.19-0.08-0.32-0.25-0.28-0.5
		c0.14-0.97,0.89-1.61,1.76-2.09c0.5-0.44,0.97-0.92,1.29-1.48c0.01-0.02,0.01-0.04,0.02-0.06c0.02-0.03,0.05-0.05,0.07-0.08
		c0-0.01,0.01-0.02,0.02-0.04c0.04-0.08,0.1-0.14,0.16-0.19c0.39-0.48,0.88-0.64,1.36-0.94c0.3-0.19,2.4-1.5,2.29-1.93
		c-2.25,0.86-5.73,3.75-8.12,4.06c-0.22,0.03-0.37-0.07-0.46-0.21c-0.01,0-0.02,0-0.02,0.01l-0.25-0.14l-0.07-0.11
		c1.44-2.78,2.51-4.1,3.21-3.98l1.65,0.87l0.42-0.32l-1.6-2.24l0.06-0.39l0.71,0.12c0.9,0.33,1.52,0.63,1.88,0.93
		c0.27,0.13,0.52,0.29,0.77,0.46c0.34,0.08,0.75,0.15,0.88-0.14c0.01-0.03,0.01-0.06,0.02-0.08c0-0.14,0.02-0.29,0.03-0.43
		c-0.03-0.22-0.09-0.45-0.16-0.68c-1.52-1.63-2.25-2.7-2.16-3.19c0.37-0.07,0.61-0.42,0.72-1.06c0.13-0.76-0.59-1.8-2.17-3.13
		l-0.53-0.09c-0.79-0.13-2.27,1.13-4.44,3.77c-1.44,1.59-2.77,2.29-3.96,2.08c-0.71-0.12-1.64,1.1-2.8,3.66
		c-0.61,0.42-1.3,0.56-2.06,0.43c-2.24-0.97-3.2-2.39-2.88-4.23c0.1-0.58,0.77-1.38,2.03-2.41l0.14-0.77l-0.36-0.06
		c-2.33,0.98-3.73,2.84-4.2,5.58c-0.24,1.37,0.17,2.89,1.21,4.54c-0.54,0.31-1.21,0.39-2.03,0.25c-1.98-1.1-2.86-2.3-2.63-3.61
		l1.37-2.72l-0.36-0.06c-1.03,0.45-1.7,1.52-1.99,3.21c-0.44,2.58,0.47,4.64,2.73,6.18c0.91,0.32,1.32,0.72,1.24,1.19
		c-0.05,0.29-2.97,1.89-8.76,4.8c-0.14,0.09-0.27,0.18-0.39,0.27c-1.41,0.04-2.85,0.27-4.32,0.7c-1.64,0.47-3.3,0.99-4.98,1.55
		s-3.38,1.08-5.1,1.55c-1.71,0.47-3.44,0.71-5.17,0.71c-0.49,0-1.06-0.05-1.72-0.15c-0.66-0.1-1.28-0.27-1.88-0.51
		c-0.59-0.24-1.09-0.57-1.5-0.98c-0.41-0.4-0.61-0.9-0.61-1.5c0-0.28,0.09-0.64,0.28-1.07c0.19-0.43,0.45-0.64,0.8-0.64
		c0.55,0,1.03,0.08,1.43,0.24c0.41,0.17,0.89,0.26,1.46,0.29c0.4,0.02,0.77-0.11,1.12-0.4c0.35-0.29,0.61-0.62,0.79-0.99
		c0.06-0.11,0.09-0.31,0.08-0.61s-0.11-0.38-0.28-0.25c-0.31,0.22-0.58,0.42-0.81,0.6c-0.23,0.17-0.59,0.26-1.07,0.26
		c-0.2,0-0.36-0.03-0.48-0.08c-0.12-0.06-0.25-0.12-0.38-0.18c-0.13-0.07-0.31-0.13-0.53-0.19c-0.22-0.05-0.53-0.08-0.92-0.08
		c-0.64,0-1.17,0.25-1.59,0.74c-0.42,0.5-0.61,1.15-0.59,1.97c0,0.72,0.21,1.42,0.63,2.08c0.41,0.66,1.01,1.24,1.78,1.76
		c0.77,0.52,1.71,0.94,2.83,1.26c1.12,0.31,2.39,0.47,3.79,0.47c1.56,0,3.04-0.13,4.44-0.41c1.39-0.27,2.79-0.59,4.19-0.94
		c1.39-0.35,2.81-0.67,4.27-0.96c1.45-0.28,3-0.42,4.65-0.42c1.6,0,3.27,0.26,4.99,0.8c1.73,0.54,3.31,1.37,4.75,2.5
		c1.44,1.12,2.62,2.53,3.54,4.24c0.93,1.7,1.39,3.73,1.39,6.08c0,0.86-0.06,1.74-0.17,2.64c-0.11,0.91-0.29,1.79-0.56,2.64
		c-0.26,0.86-0.61,1.68-1.05,2.46c-0.44,0.78-1,1.49-1.68,2.13c-0.75,0.71-1.58,1.34-2.49,1.9c-0.91,0.56-1.84,1.12-2.77,1.67
		c-0.93,0.55-1.85,1.11-2.75,1.68c-0.9,0.57-1.69,1.21-2.4,1.95H79.3v-0.01c-0.13-0.82-0.44-1.55-0.92-2.22
		c-0.48-0.67-1.1-1.27-1.85-1.8c-0.74-0.53-1.58-0.99-2.52-1.37c-0.93-0.38-1.9-0.7-2.91-0.94c-0.86-0.2-1.71-0.41-2.56-0.63
		c-0.85-0.22-1.65-0.45-2.42-0.71c-0.77-0.25-1.48-0.53-2.13-0.84c-0.65-0.31-1.19-0.65-1.63-1.02c0-0.01,0-0.01,0.01-0.02
		c-0.06-0.05-0.12-0.1-0.17-0.17c-0.06-0.08-0.11-0.16-0.16-0.25c-0.11-0.21-0.16-0.44-0.21-0.67c-0.12-0.45-0.19-0.93-0.24-1.4
		c-0.06-0.42-0.02-0.86,0.18-1.25c0.08-0.15,0.18-0.26,0.31-0.35c0.01-0.03,0.03-0.04,0.05-0.06c0.31-0.33,0.67-0.6,1.12-0.8
		c0.46-0.21,0.94-0.31,1.45-0.31c0.35,0,0.76,0.11,1.22,0.33c0.46,0.22,0.69,0.52,0.69,0.89c0,0.42-0.14,0.71-0.44,0.87
		c-0.3,0.17-0.62,0.33-0.96,0.48c-0.34,0.16-0.65,0.36-0.94,0.61c-0.29,0.26-0.43,0.66-0.43,1.21c0,0.37,0.17,0.71,0.5,1
		c0.33,0.3,0.73,0.46,1.22,0.48c-0.09-0.15-0.2-0.31-0.33-0.48c-0.13-0.16-0.2-0.32-0.2-0.47c0-0.33,0.14-0.54,0.41-0.63
		c0.28-0.09,0.58-0.19,0.91-0.32c0.33-0.12,0.63-0.33,0.89-0.62c0.26-0.3,0.4-0.81,0.4-1.54c0-0.48-0.11-0.88-0.33-1.2
		s-0.5-0.58-0.84-0.78c-0.35-0.19-0.71-0.33-1.11-0.41c-0.4-0.08-0.77-0.11-1.12-0.11c-0.71,0-1.3,0.12-1.78,0.37
		c-0.49,0.26-0.9,0.58-1.23,0.98c-0.01,0.01-0.02,0.02-0.03,0.03c-0.03,0.04-0.05,0.08-0.07,0.12c-0.01,0.03-0.02,0.05-0.04,0.08
		c-0.01,0.02-0.02,0.04-0.04,0.06c-0.05,0.07-0.1,0.14-0.15,0.21c-0.33,0.53-0.55,1.1-0.67,1.71c-0.12,0.62-0.18,1.21-0.18,1.78
		c0,0.18,0.01,0.34,0.05,0.48c0.03,0.13,0.05,0.27,0.07,0.41c0.01,0.02,0.01,0.04,0.01,0.06c0,0.01,0.01,0.01,0,0.02
		c0.01,0.02,0.02,0.03,0.02,0.05c0.04,0.08,0.07,0.16,0.1,0.24c0.03,0.08,0.06,0.15,0.09,0.22c0.02,0.03,0.04,0.07,0.06,0.11
		c0.5,1.21,1.48,2.25,2.94,3.11c1.46,0.87,3.12,1.52,4.97,1.93c0.98,0.25,1.99,0.43,3.03,0.57c1.03,0.13,2.04,0.33,3.01,0.61
		c0.98,0.27,1.9,0.68,2.76,1.23c0.21,0.13,0.41,0.28,0.6,0.44c-0.36-0.11-0.73-0.21-1.09-0.32c-0.02-0.01-0.03-0.03-0.04-0.04
		c-0.91-0.28-1.86-0.38-2.85-0.27c-1.17,0.14-2.36,0.5-3.57,1.08c-1.15,0.55-2.29,1.26-3.42,2.11c-0.15,0.14-0.32,0.27-0.48,0.39
		c-0.08,0.07-0.17,0.13-0.26,0.19c-0.01,0.02-0.03,0.03-0.05,0.04c0,0.02-0.01,0.02-0.03,0.03c0,0.01,0,0.01-0.01,0.02
		c-0.96,0.8-1.89,1.63-2.79,2.55c-0.91,0.96-1.84,1.91-2.77,2.84c-0.93,0.93-1.85,1.8-2.76,2.61c-0.91,0.8-1.8,1.52-2.68,2.13
		c-0.87,0.6-1.69,1.05-2.47,1.35c-0.07,0.05-0.16,0.08-0.26,0.09c-0.54,0.02-1.07-0.09-1.58-0.24c-0.51-0.14-0.99-0.31-1.46-0.54
		c-0.81-0.4-1.45-1.11-1.76-1.95c0-0.01,0-0.01-0.01-0.02c0-0.02-0.01-0.03-0.02-0.05c-0.01-0.03,0-0.07-0.01-0.1
		c-0.02-0.07-0.02-0.14-0.01-0.21c-0.09-0.54-0.12-1.11-0.02-1.71c0.13-0.75,0.39-1.45,0.8-2.1c0.28-0.45,0.73-0.9,1.36-1.33
		c0.62-0.44,1.15-0.52,1.59-0.25c0.49,0.3,0.71,0.7,0.67,1.21c-0.05,0.5-0.11,1.03-0.21,1.58c-0.09,0.55-0.1,1.1-0.03,1.65
		c0.06,0.55,0.42,1.03,1.06,1.42c0.44,0.27,0.96,0.3,1.57,0.09c0.61-0.21,1.13-0.61,1.54-1.22c-0.25,0-0.53,0.03-0.83,0.08
		c-0.29,0.05-0.53,0.02-0.71-0.1c-0.39-0.23-0.52-0.56-0.41-0.98c0.12-0.42,0.24-0.88,0.36-1.4c0.12-0.51,0.11-1.04-0.02-1.6
		c-0.14-0.55-0.63-1.09-1.48-1.62c-0.56-0.35-1.12-0.5-1.67-0.44c-0.55,0.05-1.07,0.22-1.58,0.52c-0.5,0.29-0.96,0.67-1.36,1.12
		c-0.41,0.46-0.75,0.91-1.03,1.36c-0.56,0.91-0.89,1.77-0.98,2.57c-0.09,0.81-0.04,1.57,0.16,2.28c0,0.01,0,0.01-0.01,0.01
		c0.07,0.15,0.11,0.3,0.16,0.46c0.05,0.11,0.1,0.22,0.15,0.33c0.01,0,0.01-0.01,0.02-0.02c0.35,0.81,0.84,1.52,1.47,2.12
		c0.62,0.6,1.27,1.11,1.93,1.52c0.21,0.13,0.41,0.22,0.6,0.28c0.2,0.07,0.39,0.14,0.59,0.22c0.18,0.03,0.35,0.06,0.52,0.11
		c0.15,0.01,0.31,0.02,0.45,0.04l0.01-0.01c1.82,0.23,3.82-0.29,6-1.54c2.18-1.26,4.25-2.92,6.21-5c1.08-1.1,2.1-2.26,3.08-3.5
		c0.98-1.23,2.02-2.38,3.12-3.44c1.1-1.06,2.32-1.95,3.64-2.65c0.95-0.51,2.01-0.84,3.17-1.01c0.27,0.04,0.53,0.09,0.79,0.14
		c0.32,0.1,0.6,0.22,0.85,0.37c0.17,0.22,0.33,0.46,0.49,0.72c1.05-0.97,2.16-1.8,3.31-2.51c1.16-0.7,2.3-1.34,3.43-1.91
		c1.14-0.57,2.22-1.13,3.27-1.68c1.04-0.55,1.97-1.17,2.78-1.85c1.12-0.92,2.04-1.86,2.76-2.81c0.71-0.94,1.27-1.93,1.68-2.95
		c0.4-1.02,0.69-2.09,0.84-3.2c0.15-1.12,0.23-2.29,0.23-3.52c-0.02-2.74-0.65-5.08-1.9-7.03c-0.4-0.63-0.83-1.22-1.31-1.77
		c1.55-0.71,3.1-1.73,4.64-3.06c0.89-0.63,3.22-1.28,7.01-1.95c1.89-1.18,3.25-1.74,4.08-1.66c-0.04,3.54,1.13,5.51,3.5,5.92
		l0.73-0.07l0.03-0.2c-0.66-1.06-0.91-2.02-0.77-2.88L113.98,64.84z M98.59,51.38c-0.44,1.89-1.02,2.78-1.72,2.66l-0.52-0.09
		l0.03-0.2c0.83-1.86,1.47-2.8,1.93-2.82l0.35,0.06L98.59,51.38z"/>
	<g>
		<path class="st2" d="M117.55,47.43c2.59-0.41,4.38-1.88,5.39-4.42C119.27,43.47,117.71,45.18,117.55,47.43z"/>
		<path class="st2" d="M129.61,42.91c2.1,0.54,3.96,0.01,5.55-1.59C132.23,40.46,130.48,41.25,129.61,42.91z"/>
		<path class="st2" d="M140.9,43.99c1.31,1.33,2.94,1.85,4.87,1.55C143.99,43.61,142.32,43.3,140.9,43.99z"/>
		<path class="st2" d="M153.98,54.77c0.19,1.31,0.91,2.3,2.14,2.95C155.9,55.86,155.08,54.98,153.98,54.77z"/>
		<path class="st2" d="M118.76,48.61c2.34,1.23,4.7,1.15,7.09-0.22C122.62,46.56,120.29,46.95,118.76,48.61z"/>
		<path class="st2" d="M123.33,45.19c2.62-0.1,4.58-1.35,5.87-3.74C125.51,41.47,123.76,42.97,123.33,45.19z"/>
		<path class="st2" d="M124.39,46.51c2.17,1.5,4.53,1.7,7.07,0.62C128.47,44.93,126.11,45.04,124.39,46.51z"/>
		<path class="st2" d="M111.53,50.79c2.96-0.91,4.82-2.94,5.57-6.08C112.89,45.87,111.34,48.13,111.53,50.79z"/>
		<path class="st2" d="M113.15,51.97c2.94,1.05,5.7,0.56,8.27-1.45C117.33,48.92,114.67,49.77,113.15,51.97z"/>
		<path class="st2" d="M129.65,44.33c1.37,1.7,3.2,2.42,5.47,2.16C133.26,44.03,131.36,43.57,129.65,44.33z"/>
		<path class="st2" d="M134.67,43.08c1.95,0.95,3.87,0.8,5.76-0.45C137.72,41.2,135.84,41.62,134.67,43.08z"/>
		<path class="st2" d="M134.63,44.41c1.01,1.94,2.65,3.01,4.93,3.21C138.23,44.84,136.46,44.01,134.63,44.41z"/>
		<path class="st2" d="M139.72,44.84c0.44,1.87,1.62,3.13,3.53,3.78C142.71,45.97,141.38,44.88,139.72,44.84z"/>
		<path class="st2" d="M145.38,46.74c1.16,1.46,2.73,2.15,4.68,2.05C148.49,46.69,146.86,46.21,145.38,46.74z"/>
		<path class="st2" d="M144.12,47.46c0.24,1.91,1.28,3.28,3.11,4.13C146.97,48.9,145.76,47.68,144.12,47.46z"/>
		<path class="st2" d="M148.87,49.79c0.8,1.09,1.91,1.62,3.32,1.6C151.11,49.83,149.95,49.45,148.87,49.79z"/>
		<path class="st2" d="M148.26,50.71c0.13,1.38,0.84,2.4,2.14,3.06C150.28,51.82,149.44,50.91,148.26,50.71z"/>
		<path class="st2" d="M152.09,52.17c0.68,1.16,1.73,1.81,3.14,1.94C154.32,52.45,153.21,51.95,152.09,52.17z"/>
		<path class="st2" d="M151.4,53.02c-0.02,1.39,0.58,2.47,1.8,3.27C153.29,54.34,152.54,53.34,151.4,53.02z"/>
	</g>
	<g>
		<path d="M129.01,62.79c-0.99-0.12-1.93-0.48-2.83-1.06c-0.9-0.58-1.6-1.47-2.09-2.68c0.05,0.11,0.37,0.32,0.98,0.63
			c0.61,0.31,1.34,0.52,2.18,0.63c0.32,0.05,1.28,0.1,2.89,0.16c1.61,0.06,2.81,0.28,3.59,0.65c0.77,0.38,1.46,1.34,2.07,2.88
			c-0.56-0.52-2.07-0.88-4.53-1.09h-0.35c-0.08,0.44-0.12,0.96-0.12,1.57c0,1.2,0.15,2.75,0.45,4.65c0.05,0.37,0.08,0.72,0.08,1.05
			c0,2.34-1.36,4.1-4.07,5.29c0.25-0.07,0.48-0.25,0.71-0.55c0.19-0.25,0.34-0.56,0.43-0.93c0.07-0.66,0.1-1.3,0.1-1.92
			c0-0.69-0.04-1.36-0.12-2.02c-0.15-1.27-0.29-2.44-0.39-3.53c-0.02-0.13-0.02-0.27-0.02-0.41
			C127.98,65.13,128.33,64.02,129.01,62.79z"/>
		<path d="M145.88,71.16h-0.01v-1.77c-0.16-0.23-0.38-0.41-0.66-0.55c-0.35-0.19-0.8-0.3-1.34-0.34c-0.86-0.02-1.71-0.04-2.54-0.06
			v4.55c0,0.3,0.07,0.59,0.21,0.84c0.09,0.18,0.22,0.34,0.38,0.49l0.25,0.15l-0.02,0.01l0.01,0.01l-1.71,1.29h-0.01l-0.15,0.11
			c-0.23-0.13-0.47-0.24-0.73-0.33c-0.32-0.11-0.64-0.19-0.96-0.23c-0.2-0.02-0.4-0.04-0.6-0.04c-0.63,0-1.26,0.13-1.9,0.39
			c0.18-0.33,0.44-0.66,0.79-1.01c0.69-0.67,1.47-1.04,2.32-1.11v-5.37c-0.17-0.09-0.34-0.21-0.51-0.36
			c-0.56-0.53-0.91-1.27-1.05-2.2c0.01,0.02,0.02,0.05,0.02,0.08c0.05,0.12,0.11,0.22,0.18,0.32c0.25,0.31,0.63,0.47,1.16,0.48h0.2
			v-3.22c0-1.23-0.71-1.84-2.14-1.84c0.35-0.88,1.08-1.31,2.19-1.31c1.38,0,2.07,0.68,2.07,2.05v4.32l1.83-0.01h0.05
			c0.32,0,0.67,0.07,1.05,0.22c0.79,0.32,1.33,0.71,1.62,1.18v-4.88c0-0.45-0.14-0.83-0.42-1.15c-0.14-0.16-0.28-0.29-0.42-0.36
			l1.71-1.29h0.01l0.02,0.01l0.02,0.01l0.06,0.04l0.07,0.05c0.07,0.04,0.14,0.09,0.21,0.14c0.08,0.06,0.15,0.12,0.22,0.19
			c0.18,0.18,0.33,0.38,0.43,0.59c0.13,0.26,0.2,0.54,0.2,0.83l-0.01,6.81h0.01v3.97c0,0.67,0.28,1.18,0.83,1.51l-1.71,1.29
			l-0.01-0.01h-0.01c-0.8-0.61-1.2-1.38-1.2-2.31V71.16z M137.64,65.56v0.05c0,0.01,0,0.02,0.01,0.02
			C137.64,65.6,137.64,65.58,137.64,65.56z"/>
		<path d="M154.2,68.82l0.02,0.29c0.03,0.34,0.05,0.82,0.05,1.46v0.41c-0.05,0.71-0.38,1.3-1.01,1.77c0.42-0.06,0.87-0.09,1.33-0.09
			c1.4,0,2.95,0.3,4.66,0.91c-1.56,1.35-2.37,2.03-2.43,2.03c-1.56-0.6-3.28-0.9-5.16-0.9c-1.01,0-2.06,0.09-3.16,0.26
			c0.8-0.85,1.92-1.52,3.35-2.02c0.06-0.24,0.09-0.48,0.09-0.7c0-0.12-0.01-0.25-0.02-0.36l-0.52-4.75
			c-0.03-0.21-0.05-0.43-0.05-0.67c0-0.34,0.03-0.71,0.1-1.11c0.1-0.58,0.28-1.1,0.53-1.56c0.31-0.58,0.73-1.05,1.26-1.41
			l-1.46-0.21c-0.49-0.09-1.17-0.38-2.04-0.87s-1.56-1.34-2.05-2.54c0.05,0.11,0.37,0.32,0.98,0.63c0.61,0.31,1.34,0.52,2.18,0.63
			c0.33,0.05,1.3,0.1,2.91,0.16c1.61,0.06,2.8,0.28,3.57,0.65c0.78,0.38,1.47,1.34,2.08,2.88c-0.56-0.52-2.24-0.9-5.03-1.16
			c-0.33,0.61-0.5,1.43-0.5,2.47c0,0.19,0,0.38,0.01,0.57l0.1,1.23l0.02,0.3l0.47,0.09c0.63,0.14,1.1,0.21,1.41,0.21
			c0.08,0,0.15,0,0.21-0.01c0.38-0.05,0.65-0.23,0.79-0.54c0.08-0.16,0.12-0.3,0.12-0.45c0.32,0.4,0.49,0.78,0.49,1.14
			c0,0.27-0.1,0.54-0.29,0.79c-0.37,0.47-0.84,0.7-1.41,0.7c-0.13,0-0.27-0.01-0.42-0.04C154.77,68.93,154.36,68.86,154.2,68.82z"/>
	</g>
	<g>
		<path d="M147.66,104.96c0.24,0.75,0.37,1.51,0.38,2.28v0.14c0,0.76-0.11,1.48-0.34,2.16c-0.6,1.92-2.51,4.32-5.72,7.19
			c-0.05,0-0.33-0.11-0.83-0.33c-0.54-0.23-0.88-0.38-1.02-0.45c-1.11-0.61-2.04-1.35-2.81-2.23c-0.86-0.98-1.45-2.06-1.78-3.26
			c-0.21-0.79-0.32-1.53-0.32-2.22c0-0.18,0.01-0.35,0.02-0.51c0.07-0.84,0.32-1.71,0.74-2.62c0.37-0.8,0.99-1.67,1.86-2.6
			c0.31-0.33,0.84-0.8,1.61-1.41c0.77-0.61,1.24-0.95,1.42-1c0.04-0.01,0.09-0.01,0.15-0.01c0.26,0,0.76,0.07,1.49,0.21
			c0.92,0.18,1.81,0.6,2.67,1.25C146.4,102.47,147.22,103.61,147.66,104.96z M145.76,110.46c0.09-0.52,0.14-1.02,0.14-1.5
			c0-0.95-0.18-1.85-0.55-2.68c-0.68-1.56-1.88-2.81-3.62-3.75c-0.16-0.08-0.4-0.16-0.71-0.23c-0.13-0.02-0.27-0.02-0.4-0.02
			c-0.49,0-0.99,0.11-1.51,0.33c-0.43,0.18-0.8,0.47-1.11,0.88c-0.31,0.4-0.52,0.86-0.64,1.38c-0.12,0.54-0.19,1.07-0.19,1.58
			c0,0.35,0.03,0.69,0.09,1.03c0.14,0.76,0.45,1.58,0.93,2.46c1.01,1.84,2.66,3.24,4.93,4.21
			C144.68,112.73,145.56,111.5,145.76,110.46z"/>
		<path d="M156.79,100l0.01,0.01h0.01l0.02,0.01l0.05,0.04l0.08,0.05c0.07,0.05,0.13,0.1,0.19,0.15c0.07,0.07,0.15,0.14,0.22,0.21
			c0.17,0.18,0.3,0.39,0.4,0.61c0.12,0.28,0.17,0.57,0.17,0.89v10.86l-4.89,4.21c-0.21-0.14-0.42-0.3-0.63-0.48
			c-1.09-0.89-1.97-1.99-2.63-3.32c-0.63-1.28-0.95-2.53-0.97-3.76v-0.18c0-1.28,0.22-2.46,0.67-3.54c0.26-0.64,0.55-1.16,0.85-1.58
			c0.01-0.02,0.01-0.03,0.01-0.05c0-0.13-0.19-0.42-0.56-0.87c-0.34-0.42-0.83-0.95-1.45-1.6l1.96-1.67c0.56,0.64,1,1.16,1.32,1.57
			c0.36,0.44,0.54,0.71,0.54,0.79v0.01c-0.35,0.53-0.63,1.06-0.83,1.61c-0.41,1.12-0.61,2.26-0.61,3.41c0,0.17,0,0.33,0.01,0.49
			c0.07,1.25,0.42,2.48,1.07,3.7c0.68,1.28,1.58,2.35,2.71,3.22l1.45-1.28c0-0.22,0-3.73,0.01-10.54c0-0.48-0.13-0.89-0.4-1.23
			c-0.13-0.18-0.26-0.31-0.39-0.39L156.79,100z"/>
		<path d="M164.35,109.14l0.02,0.31c0.03,0.36,0.04,0.88,0.04,1.57v0.44c-0.04,0.76-0.36,1.39-0.95,1.89c0.4-0.07,0.82-0.1,1.26-0.1
			c1.32,0,2.79,0.33,4.4,0.98c-1.48,1.45-2.24,2.17-2.29,2.17c-1.47-0.64-3.1-0.97-4.87-0.97c-0.95,0-1.95,0.09-2.98,0.28
			c0.76-0.91,1.81-1.63,3.17-2.16c0.06-0.26,0.09-0.51,0.09-0.75c0-0.13-0.01-0.26-0.02-0.39l-0.49-5.08
			c-0.03-0.23-0.04-0.46-0.04-0.71c0-0.37,0.03-0.77,0.1-1.19c0.09-0.62,0.26-1.17,0.5-1.67c0.29-0.62,0.69-1.12,1.19-1.5
			l-1.38-0.23c-0.46-0.09-1.1-0.4-1.93-0.93c-0.83-0.53-1.47-1.43-1.94-2.72c0.04,0.12,0.35,0.34,0.93,0.67
			c0.58,0.33,1.26,0.55,2.06,0.67c0.31,0.05,1.23,0.11,2.75,0.17c1.52,0.06,2.64,0.29,3.38,0.7s1.39,1.43,1.96,3.09
			c-0.53-0.55-2.12-0.97-4.75-1.24c-0.31,0.65-0.47,1.53-0.47,2.65c0,0.2,0,0.41,0.01,0.61l0.1,1.32l0.02,0.33l0.45,0.1
			c0.6,0.15,1.04,0.23,1.33,0.23c0.07,0,0.14,0,0.2-0.01c0.36-0.06,0.61-0.25,0.74-0.58c0.07-0.17,0.11-0.33,0.11-0.48
			c0.31,0.43,0.46,0.83,0.46,1.22c0,0.29-0.09,0.57-0.27,0.84c-0.35,0.5-0.79,0.75-1.33,0.75c-0.12,0-0.26-0.01-0.39-0.04
			C164.89,109.26,164.51,109.18,164.35,109.14z"/>
		<path d="M181.2,114.92c0.13,0.18,0.26,0.31,0.39,0.39l-1.63,1.38l-0.02-0.01l-0.03-0.02l-0.03-0.03l-0.03,0.01h-0.02
			c-0.59-0.1-1.14-0.47-1.65-1.1c-0.33-0.42-0.7-1.04-1.12-1.87c-0.71-1.46-1.79-4.01-3.25-7.65v7.55c0,0.72,0.26,1.26,0.79,1.62
			l-1.62,1.38l-0.01-0.01h-0.01c-0.76-0.65-1.15-1.48-1.15-2.47l0.01-10.65c0-0.64-0.11-1.12-0.34-1.44
			c-0.23-0.34-0.54-0.51-0.95-0.51c-0.34,0-0.66,0.17-0.94,0.51v-0.04c0-0.32,0.08-0.63,0.23-0.94c0.14-0.28,0.33-0.51,0.57-0.66
			c0.3-0.2,0.67-0.3,1.11-0.3c1.36,0.03,2.21,0.66,2.55,1.87l4.76,11.2v-10.16c0-0.46-0.13-0.87-0.39-1.23
			c-0.13-0.18-0.26-0.3-0.39-0.38l1.62-1.39l0.01,0.01l0.02,0.01l0.02,0.01l0.05,0.02l0.07,0.05l0.2,0.15
			c0.06,0.06,0.13,0.13,0.21,0.21c0.18,0.19,0.32,0.4,0.4,0.61c0.12,0.28,0.19,0.57,0.19,0.89l-0.01,11.75
			C180.8,114.17,180.93,114.58,181.2,114.92z"/>
	</g>
	<g>
		<g>
			<path class="st1" d="M77.25,98.29c0.32,0,0.32-0.5,0-0.5C76.92,97.79,76.92,98.29,77.25,98.29L77.25,98.29z"/>
		</g>
	</g>
	<g>
		<g>
			<path class="st1" d="M76.57,97.68c0.32,0,0.32-0.5,0-0.5C76.25,97.18,76.24,97.68,76.57,97.68L76.57,97.68z"/>
		</g>
	</g>
	<g>
		<g>
			<path class="st1" d="M76.62,97.71c0.32,0,0.32-0.5,0-0.5C76.3,97.21,76.3,97.71,76.62,97.71L76.62,97.71z"/>
		</g>
	</g>
	<g>
		<g>
			<path class="st1" d="M76.71,97.74c0.32,0,0.32-0.5,0-0.5C76.39,97.24,76.39,97.74,76.71,97.74L76.71,97.74z"/>
		</g>
	</g>
</g>
</svg>
